<svg width="56" height="56" viewBox="0 0 56 56" fill="none" xmlns="http://www.w3.org/2000/svg">
    <path d="M15.8294 20.2274C19.3551 23.9951 22.6389 27.5036 26.0004 31.0898C26.7695 29.4998 26.1992 28.5838 25.2486 27.6505C22.4488 24.9198 19.7353 22.0853 16.9182 19.3719C15.9935 18.4818 15.7516 17.7127 16.2096 16.4597C17.5663 12.7784 19.7008 9.68473 22.7858 7.29103C26.1301 4.69857 28.6534 4.65535 32.0149 7.2651C33.4667 8.39714 34.8235 9.75386 35.9209 11.2316C39.7837 16.3992 39.6368 17.7732 35.1518 22.2668C33.3112 24.1161 31.5051 26 29.6126 27.7974C28.6361 28.722 28.1695 29.6812 28.7571 31.0466C32.1273 27.5641 35.4716 24.1075 38.98 20.478C41.0108 24.8679 40.8293 25.9654 38.0554 28.7393C35.3506 31.4441 32.6631 34.1576 29.941 36.8365C29.0336 37.7265 28.2472 38.5993 28.9731 40.4313C32.6717 36.7932 36.2493 33.2761 40.2244 29.3615C39.8787 33.6823 39.559 37.2512 36.2061 39.8005C34.4432 41.1399 33.0692 42.9806 31.41 44.4842C29.9064 45.8496 28.6707 47.2236 29.1027 49.479C29.3533 50.7752 28.5497 50.9999 27.4436 50.9999C26.3634 50.9999 25.5079 50.8185 25.7671 49.5049C26.2338 47.1285 24.8338 45.7199 23.3129 44.2941C21.6797 42.7645 20.2711 40.9671 18.5169 39.6017C15.1726 37.0093 14.9479 33.4058 15.1639 29.3183C18.6638 32.9737 22.1636 36.6291 25.8103 40.44C26.6226 38.5993 26.0264 37.692 25.1017 36.7846C22.5611 34.3131 20.2279 31.6083 17.5317 29.327C14.7405 26.9765 13.6949 24.4358 15.8294 20.2188V20.2274ZM33.5186 17.1337C33.026 16.6239 32.5939 16.14 32.1359 15.682C27.3485 10.8773 27.4004 10.9205 22.5697 15.777C21.4031 16.9436 21.5587 17.4967 22.6129 18.5769C27.4004 23.4766 27.3658 23.5198 32.1705 18.6028C32.6199 18.1448 33.0433 17.6522 33.5186 17.1337Z" fill="black"/>
    <style>
        path {
            fill: #131a0d !important;
        }
    </style>
</svg>
