<svg width="56" height="56" viewBox="0 0 56 56" fill="none" xmlns="http://www.w3.org/2000/svg">
    <path d="M4 20.7927C7.11 20.7927 9.35003 20.6927 11.59 20.8227C13.47 20.9327 13.84 20.1327 13.43 18.5327C12.82 16.1527 12.22 13.7727 11.57 11.2027C14.07 10.9627 16.22 11.7027 18.28 12.4627C20.76 13.3727 22.27 12.6827 23.5 10.4627C24.39 8.87272 25.62 7.48273 26.63 5.95273C27.48 4.66273 28.2 4.68273 28.94 6.01273C28.99 6.10273 29.07 6.19272 29.12 6.28272C31.85 11.6527 35.47 14.5027 41.72 11.2727C43.39 10.4127 44.07 11.1927 43.54 13.3127C42.96 15.6427 40.93 18.5727 42.49 20.2727C43.93 21.8427 47.2 20.6327 49.66 20.8027C50.47 20.8627 51.36 20.5127 52.4 21.4027C48.45 25.9427 44.54 30.4727 40.6 34.9727C36.48 39.6727 32.25 44.2827 28.23 49.0627C26.92 50.6227 26.02 50.8527 24.71 49.3027C22.28 46.4327 19.82 43.5727 16.88 41.0027C18.97 42.1227 21.12 43.1427 23.13 44.4027C24.46 45.2427 25.31 45.2027 26.35 43.9727C29.61 40.1027 32.98 36.3127 36.29 32.4827C36.57 32.1627 36.92 31.8327 37.04 31.4427C37.31 30.5727 31 24.0727 30.13 24.3627C29.56 24.5527 28.85 25.0027 29.39 25.7927C29.81 26.4127 30.4 26.9127 30.92 27.4527C33.32 29.9594 33.42 32.5061 31.22 35.0927C30.24 36.2427 29.2 37.3327 28.21 38.4727C24.45 42.7927 24.49 42.7527 20.71 38.6527C15.39 32.8827 10 27.1727 4.02002 20.7727L4 20.7927ZM23.22 30.0927C22.52 28.8027 21.52 27.2827 20.34 27.2927C19.19 27.3127 17.66 28.7627 17.67 30.0727C17.67 31.3827 19.22 32.7927 20.37 32.8427C21.57 32.8927 22.52 31.3427 23.22 30.0927Z" fill="black"/>
    <style>
        path {
            fill: #0d101a !important;
        }
    </style>
</svg>
