<svg width="56" height="56" viewBox="0 0 56 56" fill="none" xmlns="http://www.w3.org/2000/svg">
    <path d="M20.9329 25.7125C13.0329 25.5125 7.70284 19.5325 8.01284 11.5825C8.06284 10.2025 8.72285 10.1125 9.83285 10.0325C17.8029 9.50247 24.1828 15.5225 24.2628 23.5125C24.2928 26.5425 22.2629 25.5625 20.9429 25.7025L20.9329 25.7125ZM22.7328 24.1725C21.1028 19.4225 19.5328 17.9925 15.7928 17.7125C16.5028 21.7525 18.5328 23.7225 22.7328 24.1725Z" fill="black"/>
    <path d="M34.9322 25.7226C32.1522 26.3126 31.7422 24.7326 32.1422 22.2026C33.4222 14.0026 37.1922 10.7526 46.1222 10.0626C47.2522 9.97259 48.1722 9.9526 48.2522 11.6026C48.6322 19.5626 43.0722 25.6426 34.9422 25.7226H34.9322ZM33.5222 24.2026C37.9522 23.6726 40.1222 21.4026 40.2522 17.4126C36.5422 18.0926 34.4822 20.4226 33.5222 24.2026Z" fill="black"/>
    <path d="M24.3619 34.7722C21.8219 31.7522 21.9886 28.8022 24.8619 25.9222C25.4719 25.3122 26.1519 24.7522 26.6819 24.0822C27.6619 22.8522 28.4019 23.0322 29.5419 24.0622C36.2819 30.1522 36.2119 30.0222 30.4419 36.0522C28.4819 38.1022 27.2719 38.0422 25.7219 35.9022C25.3619 35.4022 24.7519 35.0722 24.2619 34.6622L24.3619 34.7622V34.7722Z" fill="black"/>
    <path d="M39.8234 45.1523C34.5534 45.0523 31.4034 41.4423 32.1234 36.5023C32.2534 35.6423 32.4434 34.9423 33.5634 34.6823C38.6434 33.4923 43.9534 38.7423 42.7634 43.7723C42.3034 45.7123 40.8434 45.0123 39.8334 45.1523H39.8234Z" fill="black"/>
    <path d="M24.2627 34.6726C23.9227 36.2426 24.1728 37.8326 23.7828 39.4326C22.7528 43.6926 19.1127 46.0926 14.9327 45.1826C13.5627 44.8826 13.6128 43.9826 13.5628 43.0426C13.3128 38.0226 16.0227 35.0326 21.1527 34.7026C22.2127 34.6326 23.2927 34.7426 24.3627 34.7626L24.2627 34.6626V34.6726Z" fill="black"/>
    <style>
        path {
            fill: #130d1a !important;
        }
    </style>
</svg>
