<svg width="56" height="56" viewBox="0 0 56 56" fill="none" xmlns="http://www.w3.org/2000/svg">
    <path d="M17.2583 27.6601C16.9883 31.4801 18.6983 33.5601 21.3583 34.9001C23.7883 36.1201 26.1683 35.5301 28.3283 34.0701C33.1683 30.8001 37.1483 31.6601 40.5683 36.6001C41.3683 37.7601 40.8783 38.3301 40.1583 39.0501C36.5783 42.6301 32.9783 46.1801 29.4283 49.7901C28.3283 50.9101 27.5283 50.7301 26.4883 49.6701C19.9783 43.0901 13.4383 36.5301 6.84832 30.0301C5.55832 28.7601 5.84833 27.9401 6.98833 26.8701C8.70833 25.2501 10.3483 23.5301 12.0183 21.8501C16.7083 17.1601 25.6983 19.0101 28.3483 25.2101C29.6183 28.2001 28.0183 31.5201 24.7583 32.6601C21.4383 33.8301 18.5283 32.0301 17.2583 27.6401V27.6601Z" fill="black"/>
    <path d="M42.237 35.7401C41.347 34.7601 39.937 33.5401 38.977 32.0401C38.187 30.8101 39.757 30.2601 40.407 29.5201C41.477 28.3101 42.657 27.2001 43.807 26.0601C45.907 23.9801 49.437 24.9801 50.327 27.9001C50.357 28.0001 50.437 28.1001 50.447 28.2001C50.527 29.0401 43.717 35.8901 42.247 35.7501L42.237 35.7401Z" fill="black"/>
    <path d="M28.0767 6C29.8067 6.9 31.0267 8.31 32.1167 9.69C33.0767 10.91 31.5267 11.53 30.8767 12.25C29.7267 13.53 28.3167 14.6 27.2667 15.95C25.5467 18.19 24.2967 17.76 22.4667 15.92C20.5767 14.02 20.3867 12.79 22.5967 11.13C24.0467 10.04 25.2067 8.57 26.5167 7.29C26.9667 6.85 27.4867 6.49 28.0667 6.01L28.0767 6Z" fill="black"/>
    <path d="M44.5974 22.61C43.9274 23.33 43.2174 24.12 42.4874 24.87C41.5174 25.87 40.3774 26.73 39.5674 27.84C37.7074 30.38 36.2474 29.77 34.3274 27.77C32.7674 26.15 32.2074 25.08 34.2774 23.54C35.4674 22.65 36.3674 21.4 37.4874 20.41C38.4074 19.6 39.1774 17.75 40.3474 18.29C41.9074 19.01 43.0474 20.63 44.3574 21.88C44.4874 22 44.4874 22.26 44.5974 22.61Z" fill="black"/>
    <path d="M38.9674 15.9302C38.1574 16.8802 37.7874 17.3802 37.3474 17.8302C36.1474 19.0702 34.7474 20.1502 33.7274 21.5302C31.7374 24.2202 30.1474 24.0302 28.0774 21.5302C26.8274 20.0202 26.2574 19.0902 28.0274 17.6402C29.5174 16.4202 30.7374 14.8602 32.1874 13.5702C32.8874 12.9502 33.3974 11.4002 34.7274 12.3402C36.1974 13.3902 37.4974 14.6802 38.9574 15.9302H38.9674Z" fill="black"/>
    <style>
        path {
            fill: #1a0d16 !important;
        }
    </style>
</svg>
