
<svg
    xmlns="http://www.w3.org/2000/svg"
    width="56"
    height="56"
    fill="none"
>
    <path
        fill="#000"
        d="m46.926 35.492.127-.33c-.09-.168-.025-.338.118-.433a.17.17 0 0 1 .063-.027c.058-.141.115-.283.178-.423-.033-.073-.04-.146.04-.21a.171.171 0 0 1 .07-.035c.14-.417.287-.834.474-1.236.462-.986 1.05-1.914 1.51-2.9.122-.258.23-.525.325-.796a15.068 15.068 0 0 0 .06-4.047c-.126-.6-.285-1.193-.444-1.788a5.765 5.765 0 0 1-.175-.463c-.114-.133-.227-.27-.336-.407-.237-.295-.236-.531.006-.795.066-.071.167-.141.067-.241-.093-.093-.206-.07-.306.004-.162.12-.295.256-.326.463-.013.084-.06.173-.167.163-.094-.01-.102-.102-.097-.171.036-.541-.239-.909-.709-1.172-.16-.091-.217-.198-.114-.386.145-.267.019-.582-.267-.722-.167-.082-.342-.173-.523-.198-.319-.045-.339-.228-.372-.48-.067-.513.044-1.076-.25-1.535-.62-.965-1.102-2.013-2.131-2.714-.746-.51-1.321-1.227-2.02-1.808a6.549 6.549 0 0 0-1.144-.788c-.297-.154-.574-.34-.868-.501-1.092-.604-2.149-1.29-3.493-1.265-.117.002-.235-.077-.355-.105-.46-.107-.94-.246-1.388-.039-.301.139-.601.267-.923.27-.556.005-.854.28-1.007.751-.095.295-.3.337-.556.21-.256-.126-.525-.15-.804-.134-.71.042-1.337.384-2.024.513-.178.032-.35.13-.509.223a2.567 2.567 0 0 1-.76.3c-.81.17-1.617.345-2.424.519-.328.071-.63.21-.973.259-.507.073-1.002-.072-1.5-.013-1.014.12-1.991-.139-2.985-.239-.526-.052-1.004-.373-1.528-.34-1.142.07-2.277-.063-3.416-.066-.927-.002-1.83.02-2.682.37-.74.301-1.518.449-2.302.565-.782.116-1.532.27-2.052.914-.044.055-.119.09-.183.127-.654.37-.874.94-.85 1.64.043 1.181.132 2.36.041 3.547-.045.599.05 1.259.342 1.772.467.818.613 1.638.431 2.517-.285 1.383.414 2.428 1.233 3.44.13.162.287.245.44-.005.106.2.189.375.29.539.328.528.705 1.02 1.215 1.404.095.072.198.177.331.083.11-.077.061-.198.027-.299-.086-.25-.183-.497-.272-.746-.134-.372-.347-.744-.262-1.145.123-.588.12-1.187.232-1.775.06-.306.093-.58.502-.268.03.024.101.021.146.008.374-.11.57.336.931.27.008 0 .044.08.049.123.028.26.084.516.075.783-.011.274-.102.548-.038.82.256 1.102.87 1.999 1.757 2.733.087.071.189.143.3.044.09-.082.103-.193.053-.299-.092-.196-.199-.387-.29-.584-.396-.836-.699-1.675-.107-2.555.088-.13.147-.241.333-.233.171.005.312.032.396.206.085.173.19.338.306.493.105.142.21.37.416.306.228-.07.06-.29.067-.444l-.003-.036c0-.07-.016-.155.076-.182.097-.026.175.027.219.103.047.084.077.177.11.267.212.573.385 1.163.688 1.703.264.47.584.896 1.065 1.187.142.085.307.245.473.114.177-.14.005-.308-.064-.45-.1-.206-.23-.4-.326-.607-.157-.335-.261-.682-.166-1.122.088.14.137.22.19.299.333.506.784.9 1.317 1.206.119.069.273.198.404.055.127-.138-.03-.264-.1-.383-.1-.166-.212-.326-.31-.492-.266-.453-.194-.943-.178-1.43.16.14.276.295.406.438.087.097.183.244.334.186.169-.064.086-.225.069-.35-.01-.067-.058-.152.054-.174.067-.014.116.04.147.094.044.073.08.149.123.221.314.513.675.983 1.242 1.27.11.054.237.126.343.011.091-.1.02-.216-.043-.298-.373-.491-.41-1.067-.473-1.638-.02-.187.028-.282.246-.221.36.1.747.084 1.095.24.139.063.322.063.295-.129-.056-.402.21-.412.498-.451.184-.024.364-.09.544-.141.617-.18 1.241.24 1.247.84.002.105.013.217.044.318.32 1.038.712 2.025 1.902 2.457.31.113.464.469.775.557.807.228 1.56.592 2.365.82.213.06.428.063.619-.058.2-.126.337-.028.493.079-.084.1-.18.073-.26.072a2.777 2.777 0 0 0-1.5.38c-.46.266-.891.586-1.38.802-.545.241-.904.61-1.107 1.154-.124.333-.258.677-.516.951-.08.084-.17.215-.267-.003-.12-.27-.275-.132-.396-.003-.397.422-.603.92-.525 1.485.056.4-.051.755-.181 1.118-.127.354-.152.357-.47.113-.122-.092-.258-.402-.42-.013-.044.105-.119.006-.177-.027-.14-.08-.204-.356-.4-.243-.19.112-.009.33-.014.502 0 .017-.024.033-.048.061-.33-.26-.626-.537-.824-.913-.263-.497-.38-1.037-.578-1.554-.044-.112-.07-.252-.222-.262-.151-.01-.197.122-.256.228a2.303 2.303 0 0 0-.237 1.706c.018.08.14.255-.05.246-.227-.01-.255.092-.277.245-.008.059-.008.133-.106.07-.278-.175-.322.061-.384.215-.12.295-.11.609-.117.922-.003.168.055.346-.052.524-.287-.175-.437-.423-.606-.66-.12-.17-.154-.484-.42-.447-.28.039-.128.365-.246.586-.128-.194-.249-.358-.35-.532-.36-.618-.77-1.208-1.076-1.854-.061-.13-.11-.34-.317-.3-.203.041-.219.247-.233.412-.04.472.042.932.196 1.379.096.284.124.567.074.883-.217-.154-.263-.449-.537-.468-.273-.02-.396.183-.48.427-.285-.277-.507-.56-.835-.726-.112-.058-.24-.108-.353-.014-.123.103-.051.213.005.325.12.237.234.476.345.718.052.111.127.257-.128.183-.195-.058-.225.058-.262.204-.123.488.181.854.395 1.234.339.602.759 1.14 1 1.814.257.713.624 1.422 1.177 2.026 1.23 1.348 2.608 2.31 4.617 1.94.63-.114 1.262-.285 1.812-.564.514-.26 1.018-.503 1.577-.646.451-.115.87-.302 1.293-.487 1.243-.54 2.484-1.09 3.796-1.47.634-.184 1.273-.382 1.925-.464.466-.058.753-.218.897-.624.073-.209.214-.323.423-.419 1.2-.547 2.44-1 3.69-1.436 1.12-.392 2.217-.855 3.374-1.125 1.365-.317 2.515-1.043 3.723-1.652.562-.283.971-.788 1.248-1.358.086-.178.181-.252.301-.183Zm-34.97-20.754c-.55.665-1.317 1.088-2.012 1.59-.286.206-.89.128-1.124-.107-.292-.293-.517-.63-.37-1.063.12-.353.573-.624 1.004-.624h.201-.002c.76-.055 1.42-.107 2.08-.152.133-.009.308-.052.386.07.084.13-.092.2-.162.286Zm12.017 7.893c-.145.002-.26-.262-.266-.585-.024-.29.194-.328.385-.363.171-.033.571.257.577.391.005.109-.554.557-.696.557Zm2.281-6.288a2.11 2.11 0 0 1-.162.805c-.169.44-.339.878-.305 1.358.02.29-.117.29-.341.173a1.773 1.773 0 0 1-.66-.628c-.462-.709-1.11-1.255-1.711-1.84-.25-.243.086-.484-.058-.714-.01-.016.09-.049.13-.022.112.073.287.141.31.24.097.403.374.376.69.321.454-.08.917-.13 1.366-.232.621-.143.748-.066.743.537h-.002v.002Zm2.774 12.27c-.483-.31-1.125-.474-1.217-1.158-.012-.093-.101-.224.116-.213.592.035 1.285.748 1.25 1.278h.002c0 .127-.089.134-.151.094Zm10.76-15.552c.16-.039.26.153.347.283.013.02.025.04.034.063.111.251.146.503-.026.746-.036.05-.095.105-.155.06-.218-.162-.24-.401-.251-.641-.002-.048 0-.095 0-.171.045-.094-.152-.292.051-.34ZM32.82 29.203c-.26.008-.663-.355-.635-.606.028-.24.24-.359.459-.412.18-.045.67.445.679.646.01.216-.19.365-.503.372Zm5.211-.826c-.262.241-.462.618-.889.354v.005c-.284-.014-.377.146-.44.32a1.624 1.624 0 0 1-.473.679c-.122.109-.222.141-.343 0-.52-.604-.955-1.257-1.24-1.994a.49.49 0 0 1 .017-.41c.112-.255.065-.492-.242-.625-.225-.098-.395-.28-.653-.342-.255-.063-.283-.314-.323-.526-.02-.108.036-.152.157-.107.34.124.69.225 1.02.365.344.146.676.247 1.046.09.172-.07.32-.002.434.129.333.38.805.609 1.166.959a.524.524 0 0 0 .154.1c.228.093.472.253.7.052.228-.201.03-.416-.08-.581-.336-.505-.465-1.077-.646-1.635-.086-.264-.01-.416.262-.49.289-.08.582-.143.885-.155.264-.012.539-.027.75-.195.207-.165.307-.119.42.097.24.46.503.91.759 1.362.11.195.126.383-.117.481-.627.255-1.025.76-1.473 1.206-.286.285-.553.586-.85.861Zm6.379 6.22a2.255 2.255 0 0 1-.695.075h.002c-.481.012-.897-.087-1.317-.154a.662.662 0 0 1-.42-.22c-.073-.087-.176-.165-.282-.165-.845.002-1.398-.658-2.154-.854a.53.53 0 0 1-.19-.11c-.08-.064-.144-.15-.072-.249.06-.085.15-.072.234-.027.4.209.853.274 1.274.428.3.108.603.262.936.071.04-.024.132-.012.175.018.337.23.621.082.941-.064.508-.231 1.014-.451 1.479-.76.223-.148.478-.134.625.16.121.244.38.415.424.707.075.5-.307.96-.96 1.144Z"
    />
</svg>