<svg width="56" height="56" viewBox="0 0 56 56" fill="none" xmlns="http://www.w3.org/2000/svg">
    <path d="M28.0682 51.5453C27.4582 50.9953 26.9682 50.5953 26.5282 50.1553C19.6682 43.3053 12.8283 36.4253 5.92826 29.6153C4.74826 28.4553 4.64825 27.7453 5.88825 26.5153C12.7983 19.7153 19.6683 12.8653 26.4583 5.9453C27.7983 4.5753 28.5482 4.7753 29.7782 6.0253C36.5082 12.8553 43.2882 19.6453 50.1282 26.3653C51.4182 27.6353 51.4883 28.3853 50.1683 29.6953C43.2483 36.4953 36.4282 43.3853 29.5682 50.2353C29.1282 50.6753 28.6283 51.0653 28.0783 51.5453H28.0682ZM24.3683 27.9553C20.3183 29.9953 15.1983 29.7453 15.4183 35.3753C20.2883 38.3653 22.7083 33.7653 26.4283 31.0253C25.8583 33.7153 25.5883 35.6153 25.0483 37.4453C24.2683 40.0653 26.3882 41.3753 27.7482 42.4553C28.9982 43.4553 29.3482 41.0253 30.3182 40.3453C31.4482 39.5453 31.3182 38.4453 31.0282 37.1653C30.6282 35.3953 29.9383 33.6053 30.2083 31.3653C33.5583 33.8553 35.8783 38.3353 40.9483 35.2253C40.0983 33.6453 40.4982 31.3353 38.1582 30.3353C36.2982 29.5353 34.0583 29.5353 32.2283 27.7653C34.3683 27.0453 36.1683 26.4153 37.9883 25.8353C40.3083 25.1053 40.5583 22.8253 40.7283 21.1553C40.8883 19.6053 38.6183 20.5953 37.5883 19.9053C36.6183 19.2553 35.7682 19.9253 35.0082 20.5953C33.4882 21.9253 31.9383 23.2253 29.8283 25.0253C30.3083 22.4953 30.4883 20.6053 31.0583 18.8353C31.9483 16.0453 29.7782 14.6453 28.2582 13.6353C27.0782 12.8553 26.5583 15.3453 25.4883 16.1353C24.5483 16.8353 24.9083 17.8353 25.1383 18.8053C25.5583 20.6353 25.8683 22.4853 26.3583 25.0153C24.1683 23.1553 22.5182 21.8153 20.9382 20.3853C19.1582 18.7753 17.4783 20.6753 15.7383 20.4653C15.2783 20.4053 15.2083 21.0353 15.3883 21.4753C16.1883 23.3753 16.3183 25.6953 19.1183 26.1353C20.6583 26.3753 22.1182 27.1453 24.3782 27.9453L24.3683 27.9553Z" fill="black"/>
    <style>
        path {
            fill: #1a0d0d !important;
        }
    </style>
</svg>
