<svg width="56" height="56" viewBox="0 0 56 56" fill="none" xmlns="http://www.w3.org/2000/svg">
    <path d="M50.9014 28.0756C50.5014 28.5856 50.2114 29.0256 49.8514 29.3956C48.7214 30.5556 47.4614 31.5956 46.4414 32.8356C44.7014 34.9756 43.0713 36.1656 41.1113 33.1056C40.4013 31.9956 39.6913 32.2457 38.8013 33.0657C37.0713 34.6457 35.6914 37.6356 33.6014 37.4656C31.8514 37.3256 30.2514 34.7056 28.6914 33.0756C27.7014 32.0456 27.0213 32.1656 26.0513 33.1156C24.4513 34.6856 23.1214 37.4357 21.1314 37.4557C19.1214 37.4757 17.7513 34.7356 16.2013 33.1156C14.7313 31.5756 13.9614 32.5756 13.2114 33.6656C11.9314 35.5256 10.9213 35.4856 9.29134 33.8356C3.61134 28.1356 3.54136 28.1956 9.25136 22.4956C14.7314 17.0056 20.2514 11.5556 25.6814 6.01565C26.9214 4.75565 27.7114 4.59564 29.0314 5.94564C35.8314 12.8556 42.7213 19.6856 49.5713 26.5456C50.0113 26.9856 50.4014 27.4857 50.9114 28.0657L50.9014 28.0756ZM22.7313 24.0256C22.7713 23.4756 19.1213 19.5156 18.6113 19.7156C16.6313 20.4756 15.5214 22.2956 14.1514 23.7656C13.8514 24.0956 17.8314 28.1856 18.4614 28.2156C19.0114 28.2456 22.7014 24.6256 22.7414 24.0256H22.7313ZM36.3714 19.7556C35.8014 19.7756 32.0913 23.4456 32.1113 23.9756C32.1313 24.5456 35.9114 28.1156 36.4714 28.0856C37.0514 28.0556 40.7813 24.3957 40.7613 23.8757C40.7413 23.4157 36.8314 19.7356 36.3714 19.7556Z" fill="black"/>
    <path d="M41.8415 37.1854C41.2415 37.8754 40.7815 38.4554 40.2615 38.9754C36.5315 42.7154 32.7515 46.4154 29.0915 50.2054C27.8815 51.4554 27.0715 51.6954 25.7415 50.3054C22.0115 46.4154 18.1615 42.6454 14.3315 38.8554C13.3915 37.9254 12.7515 37.1054 13.9915 35.9254C15.3415 34.6454 15.8715 36.0754 16.5415 36.6954C21.1015 40.9754 21.1815 41.0754 25.5115 36.6254C27.1015 34.9954 27.9215 35.3054 29.3315 36.7154C33.6215 41.0354 33.6515 40.9654 38.2515 36.6554C38.8115 36.1254 39.2415 35.0054 40.2615 35.5054C40.8715 35.8054 41.2615 36.5454 41.8315 37.1754L41.8415 37.1854Z" fill="black"/>
    <style>
        path {
            fill: #1a160d !important;
        }
    </style>
</svg>
