<svg width="56" height="56" viewBox="0 0 56 56" fill="none" xmlns="http://www.w3.org/2000/svg">
    <path d="M29.7564 50.5201C28.7864 45.7501 29.2164 42.3301 32.7564 39.4801C35.9264 36.9201 38.6764 33.8201 41.4764 30.8301C42.3064 29.9401 44.6064 29.0501 43.2964 27.6701C41.8464 26.1301 41.0864 28.5801 40.2564 29.3501C36.7664 32.6501 33.4564 36.1301 29.6964 39.9401C28.9664 35.3301 28.7664 31.6901 32.5364 28.9501C34.2564 27.7001 35.6664 25.9801 37.1264 24.4001C37.6864 23.8001 39.1064 23.2101 37.8864 22.1101C36.7164 21.0601 36.1764 22.5001 35.5964 23.0601C33.7564 24.8801 32.0464 26.8201 29.8664 28.5201C29.5664 25.1001 28.0564 21.5601 31.6264 18.9901C33.4164 17.7001 32.8064 16.8001 31.5364 15.5501C28.3064 12.3601 25.8064 12.7201 23.5864 16.7401C23.1164 17.5901 23.5164 17.9701 23.9964 18.2901C27.7664 20.7901 27.0164 24.4901 26.7864 28.4701C24.1564 26.8501 22.5764 24.5201 20.5064 22.7401C19.9064 22.2201 19.3864 21.1301 18.4064 22.0501C17.3464 23.0501 18.5764 23.5501 19.0764 24.0901C20.2364 25.3601 21.3664 26.7301 22.7464 27.7401C26.7064 30.6401 27.8064 34.4401 26.6464 39.2101C25.3564 39.2301 24.8164 38.0201 24.0464 37.2801C20.9564 34.2701 17.9464 31.1801 14.8564 28.1601C14.4064 27.7201 13.9964 26.6601 13.0764 27.4101C12.0564 28.2401 12.8064 28.9001 13.4364 29.5301C16.7864 32.8901 19.9164 36.5201 23.5564 39.5301C27.0764 42.4401 27.4564 45.8201 26.6864 49.8301C25.6964 49.9201 25.3064 49.1601 24.8164 48.6801C18.6164 42.5201 12.4664 36.3101 6.24644 30.1701C4.88644 28.8301 4.37644 27.9701 6.07644 26.3301C12.9664 19.6501 19.7364 12.8301 26.4664 5.98013C27.7664 4.65013 28.5364 4.69013 29.8164 6.00013C36.6264 12.9201 43.5164 19.7701 50.4064 26.6101C51.3664 27.5601 51.9064 28.2901 50.6864 29.5101C43.8164 36.3601 37.0064 43.2601 29.7564 50.5701V50.5201Z" fill="black"/>
    <style>
        path {
            fill: #0d1a10 !important;
        }
    </style>
</svg>
