<svg width="56" height="56" viewBox="0 0 56 56" fill="none" xmlns="http://www.w3.org/2000/svg">
    <path d="M28.6022 52.934C27.7122 52.954 27.3522 52.324 26.9222 51.884C19.5922 44.574 12.2922 37.234 4.93224 29.944C3.79224 28.814 3.61224 28.074 4.87224 26.824C12.2522 19.554 19.5622 12.224 26.8322 4.85398C28.0722 3.59398 28.8322 3.81398 29.9622 4.95398C37.2522 12.314 44.5822 19.624 51.9222 26.924C52.7922 27.794 53.2622 28.474 52.1622 29.564C44.5822 37.084 37.0422 44.644 29.4922 52.184C29.1922 52.484 28.8422 52.724 28.5922 52.924L28.6022 52.934ZM19.3322 15.844C19.5222 16.034 19.7222 16.234 19.9122 16.424C20.8322 16.174 21.7422 15.824 22.6822 15.674C27.2322 14.944 31.5122 15.324 34.8622 18.994C36.7422 21.054 37.3522 23.564 36.5522 26.194C35.8322 28.584 33.8322 29.794 31.4622 30.144C29.3322 30.464 27.5922 29.674 27.0522 27.384C26.7522 26.124 27.1322 24.904 28.5822 24.624C31.0522 24.134 31.3922 26.134 31.9022 27.924C33.6622 24.684 32.1222 21.954 28.6022 22.044C25.7922 22.124 23.3022 23.214 21.9422 25.844C20.5122 28.594 20.4622 31.464 22.2222 34.104C23.1822 35.544 24.4722 36.614 26.4122 36.784C29.3722 37.034 31.0822 35.294 32.5522 33.104C36.4522 37.664 39.8022 37.874 43.8822 33.934C45.2822 32.584 46.5822 31.144 48.0122 29.834C49.1222 28.814 49.1722 28.084 48.0322 26.964C41.8822 20.914 35.7922 14.804 29.7222 8.67398C28.7922 7.74398 28.1222 7.52399 27.0722 8.55399C24.5522 11.044 21.9122 13.434 19.3222 15.854L19.3322 15.844Z" fill="black"/>
    <style>
        path {
            fill: #0d1a1a !important;
        }
    </style>
</svg>
