<svg width="56" height="56" viewBox="0 0 56 56" fill="none" xmlns="http://www.w3.org/2000/svg">
    <path d="M28.0003 18.7778C28.5317 18.7778 28.9775 18.5911 29.3377 18.2178C29.6978 17.8444 29.8772 17.383 29.876 16.8333C29.876 16.2824 29.6959 15.8203 29.3358 15.4469C28.9757 15.0736 28.5305 14.8876 28.0003 14.8889C27.4689 14.8889 27.0231 15.0756 26.6629 15.4489C26.3028 15.8222 26.1234 16.2837 26.1246 16.8333C26.1246 17.3843 26.3047 17.8464 26.6648 18.2197C27.0249 18.5931 27.4701 18.7791 28.0003 18.7778ZM33.2991 18.7778H36.5816C37.5194 18.7778 38.3322 19.1019 39.02 19.75C39.7077 20.3981 40.1297 21.1921 40.286 22.1319L42.9589 41.5764C43.1152 42.7431 42.8257 43.7723 42.0905 44.6642C41.3552 45.556 40.4098 46.0013 39.2544 46H16.7462C15.5895 46 14.6435 45.5541 13.9083 44.6622C13.173 43.7704 12.8841 42.7418 13.0417 41.5764L15.7146 22.1319C15.8709 21.1921 16.2929 20.3981 16.9806 19.75C17.6684 19.1019 18.4812 18.7778 19.419 18.7778H22.7015C22.6077 18.4537 22.5296 18.1381 22.467 17.8308C22.4045 17.5236 22.3732 17.1911 22.3732 16.8333C22.3732 15.213 22.9203 13.8356 24.0145 12.7014C25.1086 11.5671 26.4372 11 28.0003 11C29.5634 11 30.892 11.5671 31.9861 12.7014C33.0803 13.8356 33.6274 15.213 33.6274 16.8333C33.6274 17.1898 33.5961 17.5223 33.5336 17.8308C33.4711 18.1394 33.3929 18.455 33.2991 18.7778Z" fill="black"/>
</svg>
