<svg
    xmlns="http://www.w3.org/2000/svg"
    width="56"
    height="56"
    fill="none"
>
    <path
        fill="#000"
        d="M25.228 34.125c.75.73 1.697 1.072 2.838 1.029 1.141-.043 1.967-.445 2.478-1.204l10.092-14.7-15.138 9.8c-.78.525-1.209 1.32-1.283 2.383-.075 1.065.263 1.962 1.013 2.692ZM15.586 42c-.66 0-1.268-.139-1.823-.416a3.196 3.196 0 0 1-1.33-1.247 19.292 19.292 0 0 1-1.802-4.266A16.575 16.575 0 0 1 10 31.5c0-2.42.473-4.696 1.42-6.825a17.68 17.68 0 0 1 3.851-5.556c1.622-1.575 3.53-2.822 5.722-3.74 2.192-.918 4.535-1.378 7.028-1.379 2.463 0 4.776.452 6.938 1.356 2.163.904 4.055 2.137 5.677 3.698a17.914 17.914 0 0 1 3.874 5.469c.961 2.086 1.457 4.324 1.487 6.715a17.025 17.025 0 0 1-.564 4.703 16.941 16.941 0 0 1-1.869 4.396c-.33.555-.774.97-1.33 1.248A4.008 4.008 0 0 1 40.41 42H15.587Z"
    />
</svg>