<svg width="24" height="24" viewBox="0 0 24 24" fill="none" xmlns="http://www.w3.org/2000/svg">
<path d="M10.3636 15.6364H16.9091V5.45455H10.3636V15.6364ZM10.3636 17.0909C9.96364 17.0909 9.62133 16.9486 9.33673 16.664C9.05212 16.3794 8.90958 16.0368 8.90909 15.6364V5.45455C8.90909 5.05455 9.05164 4.71224 9.33673 4.42764C9.62182 4.14303 9.96412 4.00048 10.3636 4H16.9091C17.3091 4 17.6516 4.14255 17.9367 4.42764C18.2218 4.71273 18.3641 5.05503 18.3636 5.45455V15.6364C18.3636 16.0364 18.2213 16.3789 17.9367 16.664C17.6521 16.9491 17.3096 17.0914 16.9091 17.0909H10.3636ZM13.6364 8.72727C13.9394 8.72727 14.1971 8.62133 14.4095 8.40945C14.6218 8.19758 14.7278 7.93988 14.7273 7.63636C14.7273 7.33333 14.6213 7.07588 14.4095 6.864C14.1976 6.65212 13.9399 6.54594 13.6364 6.54545C13.3333 6.54545 13.0759 6.65164 12.864 6.864C12.6521 7.07636 12.5459 7.33382 12.5455 7.63636C12.5455 7.93939 12.6516 8.19709 12.864 8.40945C13.0764 8.62182 13.3338 8.72776 13.6364 8.72727ZM13.6364 14.9091C14.3394 14.9091 14.9394 14.6606 15.4364 14.1636C15.9333 13.6667 16.1818 13.0667 16.1818 12.3636C16.1818 11.6606 15.9333 11.0606 15.4364 10.5636C14.9394 10.0667 14.3394 9.81818 13.6364 9.81818C12.9333 9.81818 12.3333 10.0667 11.8364 10.5636C11.3394 11.0606 11.0909 11.6606 11.0909 12.3636C11.0909 13.0667 11.3394 13.6667 11.8364 14.1636C12.3333 14.6606 12.9333 14.9091 13.6364 14.9091ZM13.6364 13.4545C13.3333 13.4545 13.0759 13.3486 12.864 13.1367C12.6521 12.9248 12.5459 12.6672 12.5455 12.3636C12.5455 12.0606 12.6516 11.8032 12.864 11.5913C13.0764 11.3794 13.3338 11.2732 13.6364 11.2727C13.9394 11.2727 14.1971 11.3789 14.4095 11.5913C14.6218 11.8036 14.7278 12.0611 14.7273 12.3636C14.7273 12.6667 14.6213 12.9244 14.4095 13.1367C14.1976 13.3491 13.9399 13.455 13.6364 13.4545ZM14 20H7.45455C7.05455 20 6.71224 19.8577 6.42764 19.5731C6.14303 19.2885 6.00048 18.9459 6 18.5455V7.63636C6 7.4303 6.06982 7.2577 6.20945 7.11855C6.34909 6.97939 6.5217 6.90958 6.72727 6.90909C6.93333 6.90909 7.10618 6.97891 7.24582 7.11855C7.38545 7.25818 7.45503 7.43079 7.45455 7.63636V18.5455H14C14.2061 18.5455 14.3789 18.6153 14.5185 18.7549C14.6582 18.8945 14.7278 19.0671 14.7273 19.2727C14.7273 19.4788 14.6575 19.6516 14.5178 19.7913C14.3782 19.9309 14.2056 20.0005 14 20Z" fill="white"/>
</svg>
