<svg width="24" height="24" viewBox="0 0 24 24" fill="none" xmlns="http://www.w3.org/2000/svg">
<path d="M11.9992 20C10.1257 20 8.5634 19.3573 7.31239 18.0718C6.06138 16.7863 5.43561 15.1863 5.43506 13.2718C5.43506 12.4239 5.62651 11.5761 6.00942 10.7282C6.39232 9.88034 6.87096 9.06667 7.44531 8.28718C8.01967 7.50769 8.6419 6.77607 9.31198 6.09231C9.98207 5.40855 10.6043 4.81368 11.1786 4.30769C11.2881 4.19829 11.4147 4.11979 11.5585 4.07221C11.7024 4.02462 11.8493 4.00055 11.9992 4C12.1496 4 12.2967 4.02407 12.4406 4.07221C12.5845 4.12034 12.7108 4.19884 12.8197 4.30769C13.394 4.81368 14.0163 5.40855 14.6863 6.09231C15.3564 6.77607 15.9786 7.50769 16.553 8.28718C17.1274 9.06667 17.606 9.88034 17.9889 10.7282C18.3718 11.5761 18.5633 12.4239 18.5633 13.2718C18.5633 15.1863 17.9378 16.7863 16.6868 18.0718C15.4357 19.3573 13.8732 20 11.9992 20ZM11.9992 18.359C13.4214 18.359 14.5975 17.8768 15.5274 16.9124C16.4573 15.948 16.9222 14.7345 16.9222 13.2718C16.9222 12.2735 16.5084 11.1453 15.6808 9.88718C14.8532 8.62906 13.626 7.2547 11.9992 5.7641C10.3718 7.2547 9.1446 8.62906 8.31752 9.88718C7.49044 11.1453 7.07663 12.2735 7.07608 13.2718C7.07608 14.735 7.54104 15.9489 8.47096 16.9132C9.40087 17.8776 10.5769 18.3595 11.9992 18.359ZM12.2248 17.5385C12.3889 17.5248 12.5292 17.4597 12.6457 17.3432C12.7622 17.2267 12.8202 17.0866 12.8197 16.9231C12.8197 16.7316 12.7581 16.5779 12.6351 16.4619C12.512 16.346 12.3547 16.2946 12.1633 16.3077C11.6026 16.3487 11.0077 16.195 10.3786 15.8466C9.74959 15.4981 9.35301 14.8655 9.1889 13.9487C9.16155 13.7983 9.0899 13.6752 8.97393 13.5795C8.85796 13.4838 8.72449 13.4359 8.57352 13.4359C8.38207 13.4359 8.2248 13.5078 8.10173 13.6517C7.97865 13.7956 7.93762 13.9629 7.97865 14.1538C8.21113 15.3983 8.75814 16.2872 9.61967 16.8205C10.4812 17.3538 11.3496 17.5932 12.2248 17.5385Z" fill="white"/>
</svg>
