<svg width="24" height="24" viewBox="0 0 24 24" fill="none" xmlns="http://www.w3.org/2000/svg">
<path d="M5.77778 20C5.28889 20 4.87052 19.8261 4.52267 19.4782C4.17481 19.1304 4.00059 18.7117 4 18.2222V15.5556C4 15.3037 4.08533 15.0927 4.256 14.9227C4.42667 14.7526 4.63763 14.6673 4.88889 14.6667C5.14074 14.6667 5.352 14.752 5.52267 14.9227C5.69333 15.0933 5.77837 15.3043 5.77778 15.5556V18.2222H18.2222V5.77778H5.77778V8.44444C5.77778 8.6963 5.69244 8.90756 5.52178 9.07822C5.35111 9.24889 5.14015 9.33393 4.88889 9.33333C4.63704 9.33333 4.42607 9.248 4.256 9.07733C4.08593 8.90667 4.00059 8.6957 4 8.44444V5.77778C4 5.28889 4.17422 4.87052 4.52267 4.52267C4.87111 4.17481 5.28948 4.00059 5.77778 4H18.2222C18.7111 4 19.1298 4.17422 19.4782 4.52267C19.8267 4.87111 20.0006 5.28948 20 5.77778V18.2222C20 18.7111 19.8261 19.1298 19.4782 19.4782C19.1304 19.8267 18.7117 20.0006 18.2222 20H5.77778ZM11.6889 12.8889H4.88889C4.63704 12.8889 4.42607 12.8036 4.256 12.6329C4.08593 12.4622 4.00059 12.2513 4 12C4 11.7481 4.08533 11.5372 4.256 11.3671C4.42667 11.197 4.63763 11.1117 4.88889 11.1111H11.6889L10.0444 9.46667C9.86667 9.28889 9.78133 9.08148 9.78844 8.84444C9.79555 8.60741 9.88089 8.4 10.0444 8.22222C10.2222 8.04444 10.4335 7.952 10.6782 7.94489C10.923 7.93778 11.1339 8.02281 11.3111 8.2L14.4889 11.3778C14.5778 11.4667 14.6409 11.563 14.6782 11.6667C14.7156 11.7704 14.7339 11.8815 14.7333 12C14.7333 12.1185 14.715 12.2296 14.6782 12.3333C14.6415 12.437 14.5784 12.5333 14.4889 12.6222L11.3111 15.8C11.1333 15.9778 10.9224 16.0631 10.6782 16.056C10.4341 16.0489 10.2228 15.9561 10.0444 15.7778C9.88148 15.6 9.79615 15.3926 9.78844 15.1556C9.78074 14.9185 9.86607 14.7111 10.0444 14.5333L11.6889 12.8889Z" fill="white"/>
</svg>
