<svg width="24" height="24" viewBox="0 0 24 24" fill="none" xmlns="http://www.w3.org/2000/svg">
<path d="M11.6 7.2C11.16 7.2 10.7835 7.04347 10.4704 6.7304C10.1573 6.41733 10.0005 6.04053 10 5.6C10 5.16 10.1568 4.78347 10.4704 4.4704C10.784 4.15733 11.1605 4.00053 11.6 4C12.04 4 12.4168 4.1568 12.7304 4.4704C13.044 4.784 13.2005 5.16053 13.2 5.6C13.2 6.04 13.0435 6.4168 12.7304 6.7304C12.4173 7.044 12.0405 7.20053 11.6 7.2ZM15.6 19.2V16H11.6C11.16 16 10.7835 15.8435 10.4704 15.5304C10.1573 15.2173 10.0005 14.8405 10 14.4V9.6C10 9.16 10.1568 8.78347 10.4704 8.4704C10.784 8.15733 11.1605 8.00053 11.6 8C11.92 8 12.1968 8.07013 12.4304 8.2104C12.664 8.35067 12.9139 8.57387 13.18 8.88C13.78 9.6 14.3235 10.1267 14.8104 10.46C15.2973 10.7933 15.8205 11.0133 16.38 11.12C16.6067 11.16 16.8 11.26 16.96 11.42C17.12 11.58 17.2 11.7733 17.2 12C17.2 12.2267 17.1168 12.4133 16.9504 12.56C16.784 12.7067 16.5939 12.76 16.38 12.72C15.7933 12.6133 15.2235 12.4267 14.6704 12.16C14.1173 11.8933 13.6272 11.5867 13.2 11.24V14H15.6C16.04 14 16.4168 14.1568 16.7304 14.4704C17.044 14.784 17.2005 15.1605 17.2 15.6V19.2C17.2 19.4267 17.1232 19.6168 16.9696 19.7704C16.816 19.924 16.6261 20.0005 16.4 20C16.1733 20 15.9835 19.9232 15.8304 19.7696C15.6773 19.616 15.6005 19.4261 15.6 19.2ZM10 20C8.89333 20 7.95013 19.6099 7.1704 18.8296C6.39067 18.0493 6.00053 17.1061 6 16C6 15.04 6.30347 14.1933 6.9104 13.46C7.51733 12.7267 8.28053 12.2667 9.2 12.08V13.72C8.73333 13.9067 8.35013 14.2035 8.0504 14.6104C7.75067 15.0173 7.60053 15.4805 7.6 16C7.6 16.6667 7.83333 17.2333 8.3 17.7C8.76667 18.1667 9.33333 18.4 10 18.4C10.52 18.4 10.9835 18.2501 11.3904 17.9504C11.7973 17.6507 12.0939 17.2672 12.28 16.8H13.92C13.7333 17.72 13.2733 18.4835 12.54 19.0904C11.8067 19.6973 10.96 20.0005 10 20Z" fill="white"/>
</svg>
