<svg width="24" height="24" viewBox="0 0 24 24" fill="none" xmlns="http://www.w3.org/2000/svg">
<path d="M6.11861 17.8814C5.45654 17.2193 4.93778 16.4543 4.56231 15.5862C4.18685 14.7182 3.99941 13.8207 4 12.8938C4 11.967 4.17655 11.0512 4.52965 10.1467C4.88275 9.24219 5.45654 8.39239 6.25102 7.59733C6.76596 7.08239 7.40242 6.64101 8.16041 6.2732C8.9184 5.90539 9.81587 5.61496 10.8528 5.40192C11.8897 5.1883 13.0741 5.05942 14.4059 5.01528C15.7377 4.97114 17.2272 5.02263 18.8744 5.16976C18.9921 6.72929 19.0289 8.16376 18.9847 9.47318C18.9406 10.7826 18.8191 11.9634 18.6201 13.0157C18.4218 14.0673 18.1423 14.9866 17.7815 15.7734C17.4208 16.5602 16.9759 17.2187 16.4468 17.749C15.667 18.5287 14.8396 19.099 13.9645 19.4598C13.0894 19.8205 12.1955 20.0006 11.2827 20C10.3264 20 9.39215 19.8123 8.47997 19.4368C7.56779 19.0613 6.78067 18.5429 6.11861 17.8814ZM8.59031 17.5283C9.01698 17.7784 9.45482 17.9588 9.90385 18.0694C10.3529 18.1801 10.8125 18.2351 11.2827 18.2345C11.9595 18.2345 12.6289 18.0986 13.291 17.8267C13.953 17.5548 14.5857 17.1169 15.1889 16.5131C15.4537 16.2483 15.7224 15.8767 15.9948 15.3982C16.2673 14.9198 16.5027 14.2948 16.701 13.5232C16.8994 12.7505 17.05 11.8163 17.153 10.7205C17.256 9.62472 17.2707 8.31883 17.1971 6.80285C16.4762 6.77343 15.6635 6.76254 14.759 6.77019C13.8545 6.77784 12.9532 6.84758 12.0551 6.9794C11.1577 7.11182 10.3043 7.32515 9.49513 7.6194C8.68595 7.91365 8.02388 8.31824 7.50894 8.83318C6.84688 9.49525 6.39079 10.15 6.14068 10.7973C5.89056 11.4447 5.76551 12.0699 5.76551 12.6732C5.76551 13.5412 5.93117 14.3027 6.2625 14.9577C6.59382 15.6127 6.88425 16.0723 7.13377 16.3366C7.7517 15.1596 8.56824 14.0302 9.58341 12.9486C10.5986 11.8669 11.7829 10.9806 13.1365 10.2897C12.0772 11.2166 11.1541 12.265 10.3673 13.435C9.58047 14.6049 8.98814 15.9694 8.59031 17.5283Z" fill="white"/>
</svg>
