<svg width="24" height="24" viewBox="0 0 24 24" fill="none" xmlns="http://www.w3.org/2000/svg">
<path d="M11.1111 18.2222V13.7778L4.4 6.22222C4.28148 6.1037 4.18519 5.96681 4.11111 5.81156C4.03704 5.6563 4 5.49689 4 5.33333C4 4.94815 4.13333 4.62963 4.4 4.37778C4.66667 4.12593 4.99259 4 5.37778 4H18.6222C19.0074 4 19.3333 4.12593 19.6 4.37778C19.8667 4.62963 20 4.94815 20 5.33333C20 5.4963 19.963 5.6557 19.8889 5.81156C19.8148 5.96741 19.7185 6.1043 19.6 6.22222L12.8889 13.7778V18.2222H16.4444C16.6963 18.2222 16.9076 18.3076 17.0782 18.4782C17.2489 18.6489 17.3339 18.8599 17.3333 19.1111C17.3333 19.363 17.248 19.5742 17.0773 19.7449C16.9067 19.9156 16.6957 20.0006 16.4444 20H7.55556C7.3037 20 7.09274 19.9147 6.92267 19.744C6.75259 19.5733 6.66726 19.3624 6.66667 19.1111C6.66667 18.8593 6.752 18.6483 6.92267 18.4782C7.09333 18.3081 7.3043 18.2228 7.55556 18.2222H11.1111ZM7.95556 7.55556H16.0444L17.6444 5.77778H6.35556L7.95556 7.55556ZM12 12.0889L14.4667 9.33333H9.53333L12 12.0889Z" fill="white"/>
</svg>
