<svg width="24" height="24" viewBox="0 0 24 24" fill="none" xmlns="http://www.w3.org/2000/svg">
<path d="M12 20C11.7872 20 11.5842 19.9601 11.3911 19.8803C11.198 19.8005 11.0219 19.6874 10.8628 19.5411L4.45885 13.1372C4.31255 12.9776 4.1995 12.8012 4.1197 12.6081C4.0399 12.415 4 12.2123 4 12C4 11.7872 4.0399 11.5811 4.1197 11.3815C4.1995 11.182 4.31255 11.0091 4.45885 10.8628L10.8628 4.45886C11.0224 4.29926 11.1988 4.18275 11.3919 4.10933C11.585 4.03592 11.7877 3.99947 12 4.00001C12.2128 4.00001 12.4189 4.03671 12.6185 4.11013C12.818 4.18355 12.9909 4.29979 13.1372 4.45886L19.5411 10.8628C19.7007 11.0091 19.8173 11.182 19.8907 11.3815C19.9641 11.5811 20.0005 11.7872 20 12C20 12.2128 19.9636 12.4158 19.8907 12.6089C19.8178 12.802 19.7013 12.9781 19.5411 13.1372L13.1372 19.5411C12.9909 19.6874 12.818 19.8005 12.6185 19.8803C12.4189 19.9601 12.2128 20 12 20ZM12 18.404L18.404 12L12 5.59602L5.59601 12L12 18.404ZM12 12.798C12.2261 12.798 12.4158 12.7217 12.569 12.569C12.7222 12.4163 12.7985 12.2266 12.798 12V8.80798C12.798 8.58188 12.7214 8.39249 12.5682 8.2398C12.415 8.08712 12.2256 8.01051 12 8.00998C11.7739 8.00998 11.5845 8.08659 11.4318 8.2398C11.2791 8.39302 11.2025 8.58241 11.202 8.80798V12C11.202 12.2261 11.2786 12.4158 11.4318 12.569C11.585 12.7222 11.7744 12.7985 12 12.798ZM12 15.192C12.2261 15.192 12.4158 15.1154 12.569 14.9622C12.7222 14.809 12.7985 14.6196 12.798 14.394C12.798 14.1679 12.7214 13.9785 12.5682 13.8258C12.415 13.6732 12.2256 13.5965 12 13.596C11.7739 13.596 11.5845 13.6726 11.4318 13.8258C11.2791 13.9791 11.2025 14.1684 11.202 14.394C11.202 14.6201 11.2786 14.8098 11.4318 14.963C11.585 15.1162 11.7744 15.1926 12 15.192Z" fill="white"/>
</svg>
