<svg width="24" height="24" viewBox="0 0 24 24" fill="none" xmlns="http://www.w3.org/2000/svg">
<path d="M13.4034 12.1818C13.0398 11.6705 12.5598 11.3155 11.9634 11.1168C11.367 10.9182 10.7505 10.8186 10.1136 10.8182C9.47727 10.8182 8.86068 10.9177 8.26386 11.1168C7.66705 11.3159 7.18705 11.6709 6.82386 12.1818H13.4034ZM10.1136 9.45454C10.6364 9.45454 11.1677 9.52 11.7077 9.65091C12.2477 9.78182 12.7477 9.98341 13.2077 10.2557C13.6677 10.5284 14.0625 10.8693 14.392 11.2784C14.7216 11.6875 14.9432 12.1705 15.0568 12.7273C15.1023 12.9432 15.0568 13.1334 14.9205 13.298C14.7841 13.4625 14.608 13.545 14.392 13.5455H5.83523C5.61932 13.5455 5.44318 13.463 5.30682 13.298C5.17045 13.133 5.125 12.9427 5.17045 12.7273C5.28409 12.1705 5.50864 11.6875 5.84409 11.2784C6.17955 10.8693 6.57727 10.5284 7.03727 10.2557C7.49727 9.98295 7.99432 9.78114 8.52841 9.65023C9.0625 9.51932 9.59091 9.45409 10.1136 9.45454ZM5.68182 16.2727C5.48864 16.2727 5.32682 16.2073 5.19636 16.0764C5.06591 15.9455 5.00045 15.7836 5 15.5909C5 15.3977 5.06545 15.2359 5.19636 15.1055C5.32727 14.975 5.48909 14.9095 5.68182 14.9091H14.5455C14.7386 14.9091 14.9007 14.9745 15.0316 15.1055C15.1625 15.2364 15.2277 15.3982 15.2273 15.5909C15.2273 15.7841 15.1618 15.9461 15.0309 16.077C14.9 16.208 14.7382 16.2732 14.5455 16.2727H5.68182ZM17.75 19H16.5909V17.6364H17.5455L18.5 8.09091H11.9886L11.9205 7.49432C11.8977 7.28977 11.9518 7.11068 12.0827 6.95704C12.2136 6.80341 12.3811 6.72682 12.5852 6.72727H15.2273V4.68182C15.2273 4.48864 15.2927 4.32682 15.4236 4.19636C15.5545 4.06591 15.7164 4.00045 15.9091 4C16.1023 4 16.2643 4.06545 16.3952 4.19636C16.5261 4.32727 16.5914 4.48909 16.5909 4.68182V6.72727H19.25C19.4545 6.72727 19.625 6.80114 19.7614 6.94886C19.8977 7.09659 19.9545 7.27273 19.9318 7.47727L18.875 18.0114C18.8409 18.2955 18.7159 18.5314 18.5 18.7191C18.2841 18.9068 18.0341 19.0005 17.75 19ZM5.68182 19C5.48864 19 5.32682 18.9345 5.19636 18.8036C5.06591 18.6727 5.00045 18.5109 5 18.3182C5 18.125 5.06545 17.9632 5.19636 17.8327C5.32727 17.7023 5.48909 17.6368 5.68182 17.6364H14.5455C14.7386 17.6364 14.9007 17.7018 15.0316 17.8327C15.1625 17.9636 15.2277 18.1255 15.2273 18.3182C15.2273 18.5114 15.1618 18.6734 15.0309 18.8043C14.9 18.9352 14.7382 19.0005 14.5455 19H5.68182Z" fill="white"/>
</svg>
