<svg xmlns="http://www.w3.org/2000/svg" width="72" height="72">
  <g>
    <path class="logo-umf" d="M15.905 12.675c0 7.957-.06 15.14.01 22.32.13 11.715 8.818 20.7 19.966 20.75 11.178.05 19.956-8.813 20.166-20.518.13-7.191.02-14.383.02-21.676 7.029 2.891 12.078 15.472 10.708 26.108-1.85 14.283-13.167 25.514-27.385 27.146-13.707 1.581-27.194-6.578-32.263-19.49-4.8-12.289-1.31-27.126 8.778-34.64Z"/>
    <path class="logo-umf" d="M32.603 5h6.946a6.035 6.035 0 0 1 6.03 6c.032 7.28.065 19.084-.03 23.14-.16 6.678-3.719 10.626-9.368 10.707-5.869.09-9.428-3.928-9.578-10.939-.055-2.637-.035-15.24-.016-22.908a6.019 6.019 0 0 1 6.016-6Z"/>
  </g>
  <style>
    @media (prefers-color-scheme: dark) {
      .logo-umf {
        filter: invert(1);
      }
    }
  </style>
</svg>
