<?xml version="1.0" encoding="UTF-8"?><svg id="Ebene_2" xmlns="http://www.w3.org/2000/svg" viewBox="0 0 449 335.3"><defs><style>.cls-1{stroke-width:0px;}</style></defs><g id="Ebene_1-2"><path class="cls-1" d="m137.83,99.58c.35-.23.02-1.08.74-.53.29.23.59.12.77-.13.54-.82,1.55-1.03,2.21-1.74.35-.38,1.14-.37,1.69-.66,1.22-.63,2.45-1.27,3.71-1.82.57-.25,1.14-.46,1.68-.78.25-.15.54-.21.61-.56.03-.15.19-.32.31-.23.63.51,1.08-.12,1.59-.26.63-.17,1.15-.57,1.87-.63.76-.07,1.54-.4,2.15-1,.36-.36.84-.56,1.35-.69,1.22-.32,2.08-1,2.28-2.34.08-.54.26-1.06.4-1.59.23-.86.64-1.23,1.49-1.08,1.32.24,2.54.09,3.71-.55.37-.21.77-.2,1.16,0,.8.42,1.68.48,2.56.48,1.6,0,3.2.12,4.8.03,1.09-.06,2.1-.32,2.97-.98.59-.45,1.22-.8,1.91-1.03.73-.24,1.42-.56,2.05-1.01,1.09-.79,2.42-.76,3.67-.92,1.06-.14,1.99-.55,2.8-1.14,1.71-1.24,3.64-1.44,5.64-1.42.27,0,.46.19.69.31.69.38.6.27,1.23-.34.32-.31.8-.66,1.31-.8.89-.23,1.67-.65,2.45-1.14,1.38-.87,2.8-1.71,4.33-2.27.98-.36,2.02-.59,3.01-.96,1.51-.56,2.91-1.35,4.31-2.14,2.7-1.52,5.38-3.09,8.07-4.64.44-.25.88-.53,1.34-.74,1.4-.64,2.66-1.52,4.01-2.25,2.76-1.48,5.5-3.03,8.38-4.27,1.11-.48,1.93-1.28,2.73-2.13.27-.29.56-.59.75-.94.86-1.54,2.31-2.39,3.75-3.26.12-.08.27-.13.37-.23,1.42-1.53,3.33-2.03,5.24-2.53.97-.26,1.78-.83,2.68-1.22,1.02-.44,1.79-1.2,2.61-1.91.28-.24.5-.3.87-.22.68.14.9-.01.94-.69.1-1.59.96-2.66,2.1-3.68,1.15-1.02,2.62-1.41,3.84-2.27.5-.36,1.07-.62,1.62-.92.78-.43,1.62-.66,2.5-.73,1.34-.11,1.97-.61,2.34-1.91.22-.78.52-1.52.9-2.23.84-1.57,2.06-2.72,3.7-3.44.84-.37,1.65-.78,2.48-1.16.68-.31,1.27-.76,1.67-1.38.46-.7,1.09-1.06,1.87-1.22.69-.14,1.32-.4,1.92-.78.51-.32,1.07-.4,1.67-.42,1.47-.05,2.92.16,4.36.32,1.24.13,2.34.78,3.49,1.24.97.39,1.08.4,1.47-.54.18-.43.3-.9.42-1.36.21-.78.64-1.43,1.31-1.84,1.66-1.01,3.07-2.33,4.61-3.49.72-.54,1.53-.84,2.43-.9.6-.04,1.18.01,1.52.63.17.32.39.36.73.22,1.37-.56,2.67-.26,3.86.5.59.38,1.1.38,1.6-.03.78-.65,1.61-.94,2.64-.67.54.14,1.09-.04,1.58-.32.45-.26.88-.27,1.36-.07.54.22,1.13.34,1.71.34.9,0,1.73.24,2.52.64,1.16.58,2.42.8,3.68.96.59.07,1.15.19,1.66.51.41.25.85.43,1.32.52.07.02.14.04.21.04.83.08,1.25,1.1,2.14.99.83-.1,1.49.22,2.17.6.25.13.56.14.84.21,1.66.41,3.39.55,4.96,1.28.32.15.55.06.78-.17,1.51-1.54,3.17-2.91,4.81-4.3.69-.59.93-1.56,1.65-2.16.23-.18.17-.55.17-.84,0-1.98.07-3.95.76-5.84.17-.47-.08-.84-.3-1.23-.43-.76-.4-1.01.14-1.67.28-.34.55-.68.83-1.01.98-1.13,2.25-1.68,3.7-1.89.97-.14,1.91-.48,2.91-.47,1.02.02,2.05-.31,3.03-.26,1.58.08,3.35.07,4.29,1.84.15.29.41.51.61.77.49.63.77,1.32.62,2.14-.13.68.06,1.28.37,1.89.57,1.15,1.24,2.22,2.05,3.22.38.47.78.88,1.35,1.06,1.42.44,2.04,1.57,2.51,2.83.26.68.44,1.37.91,1.97.47.6.31,1.35.02,1.99-.31.68-.36,1.33-.06,2,.23.51.24,1.08.26,1.61.07,1.6.72,3.11.65,4.74-.04,1.03.4,1.83,1.51,2.28,2.4.97,4.68,2.24,7.24,2.78.07.02.14.03.21.07,2.16,1.07,4.57,1.22,6.86,1.8.35.09.75.1,1.06.27,1.94,1.06,4.13,1.42,6.16,2.21.27.11.53.27.83.23.54-.08.98.18,1.46.36,1.39.51,2.46,1.4,3.25,2.64.34.54.87.89,1.44,1.15,1.58.71,2.77,1.88,3.83,3.21.4.5.98.77,1.38,1.24,1.03,1.23,2.18,2.36,3.4,3.39,1.09.93,1.99,2.01,2.79,3.2.54.79,1.21,1.3,2.34,1.29,1.22-.01,2.44.38,3.66.61,1.14.22,2.06.94,3.01,1.52,2.27,1.37,4.09,3.24,5.67,5.36.81,1.08,1.67,2.12,2.49,3.2.22.29.47.59.57.93.7,2.31,1.88,4.42,2.52,6.77.36,1.35.63,2.67.74,4.04.03.36.12.72.24,1.06.49,1.46.74,2.97,1.1,4.45.13.53.26,1.06.42,1.59.33,1.05.59,2.12.45,3.23-.35,2.9.49,5.57,1.57,8.18.66,1.6,1.05,3.27,1.24,4.98.06.55.15,1.09.38,1.59.23.51.31,1.05.42,1.58.15.71-.06,1.3-.55,1.81-.48.5-.99.98-1.47,1.47-.65.67-1.53.83-2.38,1.03-.95.21-1.8.57-2.55,1.2-.35.3-.56.63-.63,1.1-.19,1.29-.87,2.24-2.1,2.7-.96.36-1.92.69-2.87,1.06-.61.24-1.28.28-1.94.33-.81.06-1.48-.13-2.1-.7-.87-.81-2.04-1.28-2.74-2.33-.19-.29-.59-.28-.91-.26-1.49.1-2.8-.44-4.05-1.15-.99-.56-2.04-.97-3.07-1.44-.26-.12-.55-.19-.83-.27-.32-.09-.51.04-.47.39.18,1.55-.39,2.86-1.24,4.09-.22.32-.23.69-.22,1.05.01,1.7-.37,3.33-.72,4.97-.17.78-.29,1.58-.45,2.36-.42,2.09-1.49,3.98-1.79,6.08-.28,1.95-.57,3.9-.78,5.86-.22,2.08.35,4.07.87,6.04.84,3.14,1.76,6.25,2.78,9.33.52,1.59,1.18,3.14,2,4.62.5.92,1.21,1.56,2.16,1.92,1.02.38,1.72,1.04,2.12,2.06.58,1.51,1.58,2.79,2.35,4.2.58,1.06,1.72,1.58,2.77,2.06,1.07.49,1.95,1.17,2.64,2.07.54.71,1.15,1.33,1.9,1.79,1.98,1.22,2.42,3.12,2.26,5.22-.14,1.86-.55,3.68-1,5.49-.38,1.56-1.14,2.92-2.32,4.03-1.62,1.53-3.14,3.16-4.63,4.81-.56.62-.91,1.41-1.51,2.01-.32.32.12,1.16.7,1.19,1.17.06,2.3.9,3.52.24.09-.05.22-.05.32-.03,1.3.35,2.68.26,3.94.81.31.13.56.32.8.56.44.44.55.41.87-.14.15-.25.27-.52.38-.79.54-1.4,1.61-2.22,2.95-2.73,1.41-.54,2.89-.76,4.36-1.06.7-.14,1.38.09,2.04.32,1.04.35,2.06.74,3.19.7.54-.02.98.25,1.38.59.7.6,1.29,1.3,1.74,2.1.83,1.5,1.65,3.01,2.46,4.52.79,1.48,1.25,3.12,1.51,4.79.31,1.92.67,3.81,1.5,5.59.11.23.2.49.21.73.05,1.83.54,3.6.79,5.4.08.57-.06,1.09-.22,1.61-.45,1.42-.22,2.76.31,4.14.5,1.3.75,2.7-.37,3.9-.31.33-.51.71-.4,1.19.14.63-.17,1.13-.65,1.4-.96.54-1.25,1.42-1.32,2.38-.07.96-.52,1.53-1.37,1.93-.97.46-1.9.87-3.04.54-.64-.19-1.28.2-1.9.4-2.29.74-4.55.93-6.81-.11-.71-.32-1.47-.43-2.24-.46-1.5-.06-2.98.23-4.48.28-2.17.07-3.96,1.17-5.82,2.07-1.44.69-2.76,1.65-4.3,2.14-.45.15-.49.43-.07.69.63.39,1.09.97,1.68,1.4.51.37.92.82,1.29,1.33.79,1.1.59,2.04-.63,2.65-.55.28-1.11.55-1.66.84-1.87,1.01-3.67,2.09-5.33,3.42-.48.39-1,.76-1.56,1.01-2.09.96-3.78,2.47-5.48,3.96-2.7,2.36-5.02,5.09-7.54,7.63-.33.34-.69.66-1.07.94-1.36,1-2.41,2.34-3.73,3.38-.17.13-.32.31-.43.49-.9,1.42-2.26,2.21-3.75,2.88-1.38.62-2.49,1.65-3.61,2.64-.72.63-1.45,1.23-2.36,1.55-.2.07-.41.18-.57.32-1.7,1.6-3.88,2.45-5.8,3.69-1.1.71-2.31,1.26-3.42,1.97-1.23.78-2.38,1.68-3.6,2.5-1.49,1-2.77,2.24-4.11,3.43-1.06.94-2.2,1.81-3.33,2.67-.5.38-1,.74-1.42,1.2-2.07,2.28-4.49,4.16-6.93,6.02-1.88,1.44-3.7,2.97-5.54,4.46-2.33,1.89-4.8,3.58-7.5,4.88-3.43,1.65-6.71,3.57-9.97,5.51-1.04.62-2.13,1.12-3.29,1.48-2.61.82-5.21,1.68-7.82,2.53-.85.28-.93.39-.53,1.15.49.92.51,1.97.9,2.92.13.31,0,.61-.3.74-.7.31-1.03.89-1.26,1.57-.2.59-.71.78-1.24.97-1.8.63-3.69.87-5.55,1.25-1.18.24-2.39.39-3.54.71-2.58.71-4.99,1.84-7.37,3.06-.1.05-.2.1-.28.18-1.4,1.34-3.24,1.77-5,2.32-2.33.73-4.67,1.5-7.13,1.71-2.25.2-4.49.53-6.76.57-2.15.04-4.3.2-6.45.33-.41.03-.84.07-1.17-.17-1.07-.81-2.31-.6-3.48-.54-1.03.05-2.02.06-3.04-.06-1.88-.22-3.76-.34-5.64.13-.53.13-1.09.1-1.64.05-1.92-.17-3.83-.32-5.77-.28-2.49.05-5.02.28-7.52-.22-1.36-.27-2.79.05-4.15-.29-2.13-.53-4.32-.68-6.47-1.1-2.3-.44-4.62-.69-6.95-.89-1.96-.17-3.92-.44-5.89-.47-.84-.01-1.68.03-2.52.11-1.38.13-2.76-.19-4.15-.09-1.36.1-2.69-.18-4.04-.32-.84-.08-1.68-.04-2.51-.06-2.23-.06-4.4-.72-6.65-.57-.28.02-.59-.04-.86-.13-1.41-.44-2.87-.52-4.32-.66-.81-.08-1.59-.19-2.36-.44-1.83-.58-3.71-.72-5.62-.72-2.19,0-4.38.04-6.57-.12-1.3-.09-2.61-.14-3.91-.31-.47-.06-.95-.05-1.42.01-2.28.28-4.58.38-6.88.45-.15,0-.29,0-.44.03-2.56.49-5.16.35-7.74.42-2,.06-4,.23-5.99.48-1.84.23-3.65.53-5.47.93-1.15.25-2.37.23-3.59.18-2.33-.09-4.67-.02-7.01,0-1.66.01-3.34.36-5.01,0-.28-.06-.59-.05-.87,0-.58.11-1.16.15-1.75.13-1.69-.05-3.34.14-5,.4-1.24.2-2.55.12-3.82-.05-.48-.06-.94-.09-1.41.03-.79.21-1.6.1-2.4.19-3.27.35-6.55.41-9.84.18-.18-.01-.37-.04-.55,0-2.32.41-4.57-.12-6.85-.38-1.88-.21-3.73-.61-5.63-.72-1.12-.06-2.23-.36-3.33-.61-.75-.18-1.51-.27-2.26-.39-3.61-.58-7.02-1.78-10.05-3.83-1.9-1.29-3.8-2.58-5.7-3.87-2.02-1.37-3.65-3.11-5.31-4.85-.52-.55-1.18-.97-1.76-1.47-1.11-.96-2.01-2.12-2.96-3.22-1-1.17-2.09-2.24-3.19-3.32-1.56-1.53-3.21-2.98-4.18-5-.08-.16-.21-.3-.3-.46-1.12-1.94-2.65-3.58-3.92-5.4-1.1-1.58-2.34-3.06-3.11-4.88-.83-1.94-.84-3.91-.53-5.91.19-1.22.52-2.42.81-3.62.1-.41.08-.77-.1-1.16-.32-.7-.43-1.44-.52-2.21-.13-1.08-.45-2.14-.69-3.2-.87-3.86-1.12-7.72-.39-11.63.19-1.01.12-1.08-.93-1.26-.86-.15-1.56-.57-2.19-1.17-1.09-1.04-2.02-2.22-2.87-3.44-.71-1.02-1.59-1.91-2.2-3-.13-.23-.33-.38-.59-.46-1.14-.33-1.96-1.11-2.72-1.96-1.59-1.77-3.03-3.66-4.21-5.73-.55-.96-1.3-1.76-1.98-2.62-1.5-1.89-2.97-3.8-3.94-6.03-.85-1.94-1.47-3.96-2.06-6-.58-1.99-.69-4.02-.96-6.04-.18-1.36-.41-1.52-1.78-1.46-.29.01-.58.06-.86.13-.82.22-1.41-.03-1.86-.75-1.11-1.76-2.14-3.53-2.59-5.62-.37-1.75-.75-3.49-.99-5.26-.11-.8-.08-1.6-.22-2.4-.11-.65-.19-1.29-.36-1.93-.16-.6-.23-1.24-.03-1.84.29-.85.33-1.71.34-2.59,0-.77.06-1.53.17-2.29.1-.64.13-1.33.02-1.96-.26-1.49-.19-2.99-.2-4.48,0-1.61-.32-3.19-.32-4.8.01-3.4.03-6.79,1.22-10.04.3-.82.53-1.67.68-2.54.1-.62.34-1.2.71-1.7.44-.59.76-1.25.99-1.95.67-2.03,2.16-3.41,3.79-4.65.44-.34.85-.7,1.13-1.17.42-.69.97-1.27,1.55-1.83,1.35-1.31,2.41-2.8,3.1-4.58.73-1.89,2-3.38,3.83-4.32,2.33-1.2,4.05-3.1,5.76-4.99,1.35-1.49,2.65-3.05,4.13-4.36,1.61-1.43,3.33-2.85,5.46-3.58.28-.09.55-.2.78-.39,1.7-1.42,3.62-2.46,5.68-3.26.65-.25,1.24-.6,1.81-1,.98-.7,2.07-1.26,2.98-2.04,1.33-1.14,2.89-1.96,4.24-3.07.34-.28.7-.58,1.1-.71,1.58-.48,2.61-1.71,3.8-2.72.73-.62,1.47-1.18,2.38-1.53,1.19-.46,2.3-1.1,3.52-1.52.49-.17.85-.56,1.25-.88,1.12-.89,2.4-1.32,3.8-1.53,1.04-.16,2.08-.4,3.07-.75,1.75-.63,3.51-1.21,5.18-2.04,1.01-.5,1.79-1.39,2.94-1.64.3-.07.38-.41.48-.69.43-1.11,1.31-1.61,2.43-1.76.97-.12,1.88.16,2.79.43.35.11.72.28,1.04.02.58-.48,1.18-.33,1.75-.08.47.21.88.22,1.36.04,1.73-.64,3.62-.89,5.19-1.95.15-.1.34-.16.51-.18,2.19-.17,3.96-1.37,5.82-2.37.1-.05.2-.11.26-.2.74-1.01,1.61-1.84,2.78-2.39.48-.22.92-.54,1.46-.67.92-.23,1.75-.66,2.56-1.19,1.19-.78,2.55-1.26,3.96-1.54.66-.13,1.23-.37,1.8-.74.73-.48,1.56-.78,2.46-.82,1.54-.06,3.02-.41,4.44-1.04.82-.37,1.52-.89,2.11-1.53.57-.62,1.28-1.09,1.83-1.71.2-.22.44-.42.74-.44,1.31-.08,2.54-.58,3.87-.66,1.44-.08,2.77.08,3.98.84Zm56.83,134.87c.27-.49.12-.77.07-1.05-.24-1.41-.36-2.83-.31-4.25.03-.89.46-1.34,1.3-1.5.86-.16,1.54.16,1.89.92.11.23.15.49.26.72.19.42,0,1.13.52,1.22.46.08.67-.58.98-.92,1.41-1.49,2.56-3.18,3.76-4.83.44-.61.34-.79-.05-1.53-.45-.86-.72-1.81-.92-2.77-.05-.25.06-.5.16-.74.19-.44.32-.9.57-1.3.71-1.15,1.47-2.25,2.76-2.87,1.87-.91,3.7-1.9,5.32-3.23.51-.42,1.08-.73,1.72-.94,3.26-1.08,6.51-2.15,9.66-3.54.6-.26,1.17-.6,1.78-.84,1.81-.7,3.62-1.37,5.44-2.03.63-.23,1.18-.57,1.7-.98.97-.78,2.04-1.39,3.15-1.97,1.94-1,3.63-2.4,5.57-3.42-1.12-.32-2.22-.21-3.15.33-1.38.79-2.95,1.31-4.08,2.51-.18.19-.45.24-.71.25-1.14.07-2.25.42-3.26.87-1,.45-1.77.34-2.48-.36-1.61-1.57-3.69-1.95-5.74-2.03-4.55-.16-9.12-.06-13.65.46-.76.09-1.52.19-2.29.16-1.14-.05-2.25.19-3.37.32-2.08.25-3.97,1.21-6.02,1.54-.5.08-.77.39-.7.93.11.83.03,1.67.17,2.51.25,1.47.42,2.96.62,4.45.15,1.15-.23,1.55-1.38,1.5-1.16-.06-2.22-.4-3.23-.95-.65-.36-1.2-.8-1.55-1.49-.29-.58-.79-1.04-.96-1.7-.06-.25-.27-.43-.49-.57-.27-.16-.56-.21-.83-.07-.28.14-.19.42-.21.68-.07.88.32,1.74.11,2.61-.11.47-.14.93-.03,1.41.08.36.08.73,0,1.09-.51,2.02-.44,4.07-.26,6.11.14,1.68.08,3.34.05,5.01-.02,1.19-.52,1.62-1.66,1.39-1.26-.26-2.52-.64-3.52-1.45-1.51-1.21-2.53-2.81-3.09-4.68-.19-.63-.3-1.28-.48-1.91-.36-1.22-.46-2.54-1.1-3.65-.33-.58-.55-1.19-.75-1.81-.27-.84-.24-.85-1.05-.76-1.19.14-1.19.14-1.22,1.3-.02.73,0,1.46-.01,2.19,0,.44,0,.88-.06,1.31-.2,1.61-.82,1.89-2.18,1.05-.66-.41-1.17-.99-1.77-1.46-.73-.57-.7-.58-1.12.21-.7,1.32-1.63,2.4-3.07,2.97-.61.24-1.21.51-1.81.78-.43.19-.69.47-.71,1-.13,3,.2,5.98.31,8.97,0,.14.05.29.07.43.1.8.13,1.61.05,2.41-.1.91-.63,1.25-1.53,1.08-.4-.08-.77-.24-1.09-.49-1.82-1.45-3.88-2.62-5.22-4.61-.14-.21-.37-.35-.54-.54-.34-.38-.74-.73-.92-1.22-.37-1-.92-1.9-1.44-2.83-.56-1-.89-2.08-1.25-3.15-.08-.24-.18-.52-.51-.46-.31.05-.36.32-.39.58-.09.72-.22,1.45-.25,2.17-.1,2.23-.35,4.43-.8,6.61-.29,1.36-.44,2.76-.22,4.14.39,2.42.59,4.86.93,7.28.34,2.42.72,4.84,1.17,7.24.12.67.21,1.4.68,2.25.28-1.38.2-2.5.06-3.61-.31-2.44-.04-4.8.82-7.11.6-1.61,1.59-2.95,2.88-4.06.83-.71,1.43-.55,1.89.44.08.16.14.34.18.52.25,1.07.57,2.12.73,3.2.47,3.16,1.29,6.22,2.3,9.24.27.83.72,1.6,1.09,2.39.13.27.32.52.67.47.35-.05.43-.35.47-.65.09-.77.1-1.54,0-2.3-.19-1.56-.3-3.12-.46-4.68-.13-1.28-.02-2.56-.23-3.82-.45-2.66.03-5.15,1.19-7.55.32-.66.61-1.34,1.05-1.92.55-.73,1.25-.73,1.83-.04.14.17.25.36.35.55.48.99,1.01,1.95,1.41,2.97,1.32,3.37,2.42,6.81,3.15,10.36.19.93.39,1.86.73,2.75.22.59.45.64.99.33.3-.18.54-.41.54-.77-.02-.94.24-1.88,0-2.83-.24-.92-.37-1.87-.67-2.77-.83-2.46-.68-4.88.17-7.3.28-.81.72-1.52,1.39-2.06,1.04-.84,1.79-.65,2.29.58.23.58.42,1.17.64,1.75.58,1.58,1.27,3.11,1.94,4.65.57,1.3.9,2.7,1.45,4.01.3.7.47.82,1.02.65.7-.21,1.11-.69.91-1.26-.51-1.49-.69-3.06-1.2-4.55-.92-2.69-.13-5.03,1.57-7.13.62-.76,1.18-.71,1.77.11.38.53.7,1.11,1.04,1.67.89,1.49,2.01,2.82,3.07,4.19.23-.2.19-.39.16-.56-.31-1.76-.62-3.52-.93-5.28-.33-1.91-.22-3.72,1.14-5.26.93-1.06,1.99-.94,2.4.39.44,1.4,1.01,2.73,1.62,4.06.25.53.39,1.09.47,1.68.11.83.43,1.6.81,2.51Zm-151.99-.83c-.44.28-.46.59-.54.86-.71,2.38-1.16,4.81-1.31,7.3-.12,1.98-.01,3.95.33,5.88.41,2.3.96,4.57,1.46,6.84.09.39.19.78.32,1.16.14.39.37.46.75.2,1.35-.9,1.64-.8,2.29.72.1.23.2.47.28.71.65,1.88,1.62,3.59,2.71,5.23.13.19.17.51.58.42.39-.97.61-2.01.59-3.06-.08-3.52.72-6.89,1.88-10.16.55-1.54.42-2.99.18-4.5-.07-.45-.28-.71-.71-.86-1.03-.35-1.83-1.02-2.6-1.76-1.48-1.43-2.56-3.17-3.82-4.78-.42-.54-.75-1.16-1.09-1.76-.44-.79-.85-1.59-1.3-2.45Zm89.68,12.71c.7-.48,1.28-1.02,1.88-1.53.96-.83,2.05-.89,2.34.94.02.14.04.29.05.44.07,1.13.16,2.25.22,3.38.09,1.56.27,3.13.56,4.67.16.86.41,1.68.37,2.57-.02.49.17,1,.29,1.5.1.42.41.62.82.54.65-.12,1.31-.13,1.96-.19.65-.06.83-.28.76-.93-.05-.43-.28-.84-.3-1.27-.1-1.67-.39-3.32-.6-4.98-.2-1.55-.43-3.1-.56-4.67-.06-.71-.29-1.35-.7-1.93-.65-.89-1.03-1.93-1.49-2.92-.38-.82-.71-1.67-.82-2.59-.19-1.55-.27-3.12-.45-4.66-.28-2.3-.28-4.58-.36-6.88-.04-1.1-.15-2.19-.23-3.28-.45,1.34-.66,2.69-.85,4.07-.29,2.16-.83,4.3-1.33,6.42-.25,1.04-.43,2.07-.4,3.14.03.78-.06,1.55-.41,2.24-.97,1.87-.85,3.86-.75,5.93Zm-59.04,11.26c.09-.01.17-.02.26-.03.2-.84.42-1.68.61-2.53.34-1.52,1-2.89,1.88-4.15.3-.43.38-.76.12-1.18-.23-.37-.46-.75-.7-1.11-.91-1.37-1.71-2.78-2.1-4.42-.24-1.01-.59-2.06-1.29-2.87-.63-.72-1.14-1.51-1.7-2.27-.58-.78-1.14-1.57-1.66-2.67-.62,1.54-1.08,2.86-1.29,4.36.33-.1.5-.16.67-.21,1.04-.28,1.29-.17,1.66.81.15.41.25.84.32,1.27.13.76.2,1.52.32,2.28.53,3.57,1.02,7.15,2.07,10.63.22.72.34,1.48.82,2.09Zm47.4-30.45c-.42.37-.43.94-.5,1.45-.35,2.46-1.06,4.83-1.66,7.24-.16.65-.28,1.32-.1,1.95.64,2.15.84,4.37,1.17,6.56.81,5.34,2.36,10.45,4.62,15.36.2.44.45.75.96.74.84-.01,1.68,0,2.52-.07.55-.04.74-.35.69-.9-.04-.45-.35-.7-.64-.98-1.86-1.78-3.41-3.79-4.53-6.12-.19-.39-.32-.82-.53-1.2-1.45-2.64-2.15-5.48-2.35-8.46-.16-2.37.03-4.74,0-7.11,0-.22.03-.44.04-.66.18-2.51.37-5.02.55-7.52,0-.11-.04-.21-.24-.28Zm-21.24,19.66c.12.03.16.06.18.05.13-.06.25-.13.38-.2.93-.5,1.05-.47,1.83.18.79.67,1.69,1.21,2.37,1.99.12-.1.21-.14.22-.19.28-1.33.81-2.57,1.39-3.79.17-.35.21-.69.08-1.05-.21-.59-.25-1.21-.29-1.83-.05-1-.15-1.99-.22-2.98-.26,1.19-.45,2.37-.75,3.53-.29,1.1-1.21,1.38-2.09.68-.28-.23-.53-.5-.79-.76-.3-.3-.57-.34-.76.1-.6,1.39-1.14,2.81-1.56,4.27Z"/></g></svg>