<?xml version="1.0" encoding="UTF-8"?><svg id="Ebene_2" xmlns="http://www.w3.org/2000/svg" viewBox="0 0 550.44 168.3"><defs><style>.cls-1{stroke-width:0px;}</style></defs><g id="Ebene_2-2"><g id="Ebene_1-2"><path class="cls-1" d="m231.56,165.41c-.39-1.2-.04-2.37.61-3.38.59-.91,1.39-.3,2.12-.1.66.18,1.34.36,2.01.36.43,0,1.02-.24,1.25-.57.41-.59-.25-.83-.64-1.07-2.75-1.69-2.19-3.96-.87-6.11,3.31-5.42,5.48-11.31,7.47-17.3,1.36-4.07.55-7.67-1.79-11.19-2.84-4.26-5.31-8.74-6.53-13.81-.52-2.17-.01-3.03,2.33-3.18,6.67-.44,13.31-1.88,20.01-.5,6.92,1.43,9.34,5.13,7.61,11.98-1.35,5.35-3.17,10.58-6.03,15.35-1.67,2.79-1.19,5,1.2,6.98,4.73,3.91,7.38,9.12,9.31,14.8.6,1.77,1.39,3.47,2.09,5.2.18.46,2.25,2.76,2.25,3.1,1.79.11,3.44,1,3.4-1.58-.58-.71-.52-1.16.58-4.79.57-1.9,1.44-2.09,2.99-1.6.84.27,1.67.61,2.53.79.53.12,1.24.23,1.52-.48.21-.55-.24-.93-.61-1.23-1.58-1.26-2.43-2.78-2.09-4.88.13-.82-.35-1.51-.79-2.18-1.51-2.31-3.11-4.56-4.49-6.94-3.22-5.57-5.78-11.16-1.94-17.64,1.92-3.24,2.14-7.08,2.69-10.8,1.41-9.49.39-11.48-8.53-14.89-.92-.35-1.86-.65-2.78-1-3.1-1.17-5.66-3.13-8.03-5.41-1.65-1.59-1.71-2.53.65-3.5,3.83-1.57,7.97-2.54,11.38-4.92,4.78-3.34,10.07-5.75,15.14-8.55,2.14-1.18,4.57-1.84,7.07-2.02,9.43-.69,18.89-.91,28.32-1.76,11.09-1,22.17-2.04,33.15-3.9,21.65-3.67,43.09-8.57,65.03-10.6,16.29-1.5,32.49-1.19,48.65,1.19,13.04,1.92,25.37,6.36,37.48,11.32,9.85,4.04,19.09,9.28,27.88,15.3,4.54,3.1,9.14,6.11,13.71,9.16,1.1.73,2.21.99,3.16-.18,1.03-1.28-.14-1.95-.87-2.68-3.76-3.77-8.09-6.85-12.25-10.15-5.85-4.64-11.9-8.94-18.35-12.68-4.86-2.82-9.74-5.6-14.63-8.41.43-.52,1.14-.05,1.33-.8-2.03-.29-4.09-.14-6.04-1.06-15.72-7.43-32.23-12.49-49.16-16.39-11.7-2.69-23.54-3.16-35.42-3.32-10.74-.15-21.48.02-32.22-.08-7.73-.08-15.39-.83-23.08-1.87-5.2-.7-10.48-1.33-15.74-1.81-14.7-1.35-29.13-4.41-43.36-8.03-5.63-1.43-11.35-1.91-16.97-3.26-9.71-2.34-19.8-3.01-29.33-6.3-2.07-.71-4.3-.33-6.47-1.29-1.06-.47-2.49-1.41-3.74-1.26-2.78.32-5.21-.95-7.82-1.25-5-.56-9.86-2.53-15.03-1.65-.86.14-1.77,0-2.66-.02-7.59-.16-15.23-.96-22.74.09-3.6.51-7.29.86-10.86,1.21-6,.6-12.03,1.16-18.04,1.78-5.85.61-11.96.65-17.42,2.51-6.4,2.19-13.09,1.85-19.45,3.83-3.57,1.11-7.53,1.06-11.38.81-5.15-.34-10.11-.83-13.44-5.58-.59-.84-1.47-1.78-2.89-1.69-.7.04-1.51.07-2.1-.75-2.26-3.13-5.76-4.93-8.42-7.66.35-.62,1.43.23,1.69-.92-2.2.28-4.22.25-6.02-1.31-2.56-2.21-5.55-3.4-8.99-3.84-1.95-.25-3.96.11-5.81-.49-2.3-.74-4.38-1.04-6.19.98-.45.51-1,.54-1.57.11-.92-.69-1.69-.25-2.35.42-.89.89-1.66,1.71-2.82.22-.43-.55-1.02.19-1.5.49-.82.52-1.72,1.46-2.52,1.4-3.83-.3-4.52,2.19-4.84,5.03-.63.2-.99-2.44-1.65-.06-.15.55-.12,1.32-.48,1.62-3.22,2.72-6.95,4.75-10.73,6.43-2.78,1.24-5.14,2.71-7.3,4.79-2.05,1.97-3.93,4.42-6.72,5.2-8.27,2.32-14.12,8.25-20.4,13.46C1.44,42.17.03,44.63,0,47.37c-.11,10.04,9.77,22.47,22.25,17.52,10.19-4.05,20.94-5.26,31.92-4.75,5.51.26,11.03.1,16.48-1.07,3.67-.78,7.51-.83,10.91.44,3.05,1.13,6.21,2.1,9.23,3.49,4.36,2,9,3.59,13.35,5.7,2.46,1.19,4.93,2.88,5.51,5.83,1.11,5.56,4.07,9.26,9.41,11.44,2.27.92,4.6,1.55,6.88,2.35,2.56.91,2.98,2.27,1.77,4.71-2.12,4.27-3.62,8.8-5.02,13.74,3.49-.98,4.06-4.01,5.78-6.88.63,4.28-1.07,8.21,1.66,12.33.42-2.73,1.62-4.43,1.34-6.78-.5-4.22-.21-8.41,3.42-12.53-.93,4.9-.12,9.07-1.08,13.5,3.8-1.45,2.89-5.13,4.36-7.97,1.33,3.97,1.19,8.02,4.35,10.99.73-2.99.63-5.57-.11-8.27-1.52-5.53-.92-6.01,4.72-4.55,7.63,1.98,15.28,3.84,23.08,5.13,6.99,1.16,14.03,2.38,20.47,5.58,1.92.95,3.84,1.69,5.94,1.35,4.46-.73,8.42-.33,11.59,3.48,1,1.2,2.84,1.72,4.29,2.55,3.42,1.96,7.08,3.56,10.1,6.13,3.78,3.21,6.65,7.17,7.21,12.17.82,7.29-.68,14.19-4.36,20.65-3.08,5.4-7.22,9.15-13.63,9.51-6,.34-8.75,2.25-15.63,5.14l36.42-.4c.16-.13-.94-1.27-.76-1.38"/></g></g></svg>