<svg width="30" height="30" viewBox="0 0 30 30" fill="none" xmlns="http://www.w3.org/2000/svg">
<circle cx="15" cy="15" r="15" fill="url(#paint0_linear_98_223)"/>
<g clip-path="url(#clip0_98_223)">
<path fill-rule="evenodd" clip-rule="evenodd" d="M7.5015 14.9608C7.4995 14.9574 7.4995 14.9531 7.50149 14.9497L11.2733 8.5054C11.2753 8.50206 11.2789 8.5 11.2827 8.5H18.7586C18.7625 8.5 18.7661 8.50207 18.7681 8.50545L22.4985 14.9498C22.5005 14.9531 22.5005 14.9573 22.4985 14.9607L18.7681 21.3978C18.7661 21.4011 18.7625 21.4032 18.7586 21.4032H11.2827C11.2789 21.4032 11.2753 21.4012 11.2733 21.3978L7.5015 14.9608ZM18.4751 14.9516C18.4751 16.8702 16.9198 18.4255 15.0012 18.4255C13.0826 18.4255 11.5272 16.8702 11.5272 14.9516C11.5272 13.033 13.0826 11.4777 15.0012 11.4777C16.9198 11.4777 18.4751 13.033 18.4751 14.9516Z" fill="white"/>
</g>
<defs>
<linearGradient id="paint0_linear_98_223" x1="0" y1="0" x2="0" y2="30" gradientUnits="userSpaceOnUse">
<stop stop-color="#58A6AA"/>
<stop offset="1" stop-color="#52869D"/>
</linearGradient>
<clipPath id="clip0_98_223">
<rect width="15" height="15" fill="white" transform="translate(7.5 7.5)"/>
</clipPath>
</defs>
</svg>
