<svg width="30" height="30" viewBox="0 0 30 30" fill="none" xmlns="http://www.w3.org/2000/svg">
<circle cx="15" cy="15" r="15" fill="url(#paint0_linear_98_196)"/>
<g clip-path="url(#clip0_98_196)">
<path fill-rule="evenodd" clip-rule="evenodd" d="M15.7276 14.9672C15.8293 14.9052 15.9155 14.7753 15.9851 14.6309C16.9004 15.0051 17.5437 15.8891 17.5437 16.9201C17.5437 18.2897 16.4085 19.4001 15.0081 19.4001C14.4332 19.4001 13.903 19.2129 13.4777 18.8976C13.3382 18.8316 13.2234 18.7681 13.1295 18.7162C12.9838 18.6356 12.8883 18.5828 12.8284 18.5911C12.6536 18.6152 12.7043 18.7761 12.7505 18.9222C12.7818 19.0215 12.811 19.114 12.7658 19.1522C12.7185 19.1921 12.5654 19.0461 12.3864 18.8754C12.1427 18.6432 11.8513 18.3653 11.7139 18.4487C11.6052 18.5147 11.7107 18.6938 11.8398 18.9129L11.8494 18.9292C11.904 19.0218 11.9672 19.1162 12.0249 19.2022C12.1422 19.3772 12.2366 19.5181 12.1894 19.542C12.1322 19.5708 11.7342 19.3022 11.3988 18.9292C11.2693 18.7852 11.1439 18.6292 11.0274 18.4842V18.4842C10.7723 18.1668 10.5598 17.9024 10.4405 17.9337C10.297 17.9714 10.4055 18.2674 10.565 18.5522C10.6396 18.6855 10.7274 18.8211 10.8033 18.9386V18.9386C10.9215 19.1212 11.0112 19.2598 10.9787 19.2769C10.9348 19.2998 10.5486 18.9233 10.2863 18.4487C10.1305 18.1669 9.99973 17.8554 9.89383 17.6032C9.77898 17.3297 9.69343 17.126 9.6371 17.1055C9.44138 17.0343 9.44138 17.4334 9.51988 18.0093C9.53012 18.0845 9.54537 18.1633 9.56414 18.2435C10.3254 20.7066 12.6639 22.5 15.4307 22.5C18.815 22.5 21.5584 19.8168 21.5584 16.5068C21.5584 13.3564 19.0732 10.7738 15.9156 10.5321C15.9196 10.3836 15.9971 10.0893 15.9971 10.0893C15.9971 10.0893 16.5545 8.74064 16.584 8.45244C16.5859 8.43331 16.5882 8.41252 16.5907 8.39039C16.6254 8.07899 16.69 7.5 16.1919 7.5C15.9259 7.5 15.8022 7.69789 15.6607 7.92422V7.92422C15.6064 8.0111 15.5495 8.10218 15.4809 8.18786C14.9867 8.80499 14.1557 9.57565 13.6845 9.98622C12.6886 10.854 11.7115 11.5672 11.1416 11.9832L11.1416 11.9832C10.8824 12.1724 10.7075 12.3001 10.6533 12.3529C10.2453 12.7506 8.78247 15.3892 8.78247 15.3892C8.78247 15.3892 8.3094 16.2358 8.47755 16.4075C8.6457 16.5792 9.05119 16.5398 9.05119 16.5398C9.05119 16.5398 14.4987 15.2901 14.9864 15.1916C15.1177 15.165 15.2104 15.1497 15.2816 15.138C15.4748 15.1061 15.5095 15.1003 15.7276 14.9672ZM11.876 13.3612C11.5836 13.6392 11.0987 14.3026 11.0987 14.3026C11.0987 14.3026 12 14.3581 12.4963 13.8863C12.9927 13.4145 12.879 12.6103 12.879 12.6103C12.879 12.6103 12.1684 13.0833 11.876 13.3612Z" fill="white"/>
</g>
<defs>
<linearGradient id="paint0_linear_98_196" x1="0.193393" y1="0" x2="0.193393" y2="29.6132" gradientUnits="userSpaceOnUse">
<stop stop-color="#0180C7"/>
<stop offset="1" stop-color="#0C69C8"/>
</linearGradient>
<clipPath id="clip0_98_196">
<rect width="15" height="15" fill="white" transform="translate(7.5 7.5)"/>
</clipPath>
</defs>
</svg>
