<svg width="356" height="256" viewBox="0 0 356 256" fill="none" xmlns="http://www.w3.org/2000/svg">
<path d="M280.506 79.5293C259.788 79.2241 240.144 74.102 221.146 66.1568C217.321 64.5546 213.598 62.7031 209.823 60.9787C209.304 60.7396 208.786 60.2005 208.185 60.5616C207.555 60.938 207.84 61.6095 207.911 62.1791C210.271 80.1194 211.39 98.2122 209.971 116.183C208.669 132.668 211.863 148.162 216.202 163.707C217.524 168.437 218.806 173.183 219.951 177.959C220.495 180.243 221.482 181.977 223.623 183.107C225.19 183.931 226.645 184.989 228.084 186.031C229.757 187.242 230.353 186.937 230.383 184.826C230.485 177.288 230.663 169.754 230.892 162.216C230.938 160.761 230.175 158.712 231.69 157.999C233.145 157.318 234.376 159.062 235.546 159.953C239.529 162.979 243.466 166.062 247.352 169.2C248.751 170.329 249.351 171.001 249.844 168.401C252.072 156.738 255.643 145.415 259.025 134.052C259.712 131.748 261.08 132.348 262.571 132.811C276.9 137.241 290.359 143.564 303.212 151.255C321.625 162.272 338.431 175.365 353.849 190.274C355.303 191.677 355.675 192.598 353.818 194.007C340.72 203.946 327.78 214.094 314.047 223.163C313.975 223.209 313.904 223.255 313.833 223.3C308.243 226.856 308.39 226.724 304.138 221.891C296.625 213.356 288.253 205.67 279.967 197.903C274.957 193.208 269.9 188.57 264.834 183.936C262.311 181.621 262.276 181.647 261.167 184.77C259.778 188.681 258.313 192.573 257.047 196.52C256.324 198.763 255.45 198.86 253.725 197.42C250.338 194.602 246.777 191.998 243.384 189.19C241.94 187.995 241.507 188.437 241.08 189.994C240.078 193.671 239.025 197.334 237.871 200.965C237.102 203.382 236.238 203.687 234.173 202.237C231.192 200.141 228.318 197.898 225.393 195.726C224.935 195.391 224.498 194.765 223.857 195.07C223.196 195.385 223.481 196.123 223.471 196.677C223.379 200.996 223.496 205.33 223.196 209.633C222.636 217.7 218.882 224.699 215.271 231.693C213.206 235.691 210.591 239.354 207.407 242.578C201.924 248.138 195.332 250.91 187.488 250.381C185.037 250.218 183.322 250.58 181.939 253.092C179.965 256.668 174.421 257.06 171.654 253.631C169.34 250.763 166.776 250.478 163.521 250.371C153.134 250.02 143.062 247.568 133.078 244.928C119.023 241.215 104.786 241.144 90.4524 242.227C88.9061 242.344 87.8735 243.041 86.9732 244.384C84.847 247.548 81.1847 248.321 77.7971 246.551C76.2711 245.757 74.9791 244.684 73.8804 243.362C72.2426 241.398 70.681 239.323 69.7553 236.973C65.1418 225.294 57.3899 215.61 50.1517 205.589C47.817 202.359 45.6044 199.048 43.7783 195.497C42.9441 193.875 42.4609 192.171 42.6745 190.355C42.8322 188.992 42.8322 187.725 42.3236 186.398C41.9319 185.38 41.9573 184.185 42.822 183.29C43.7986 182.283 44.9126 182.812 45.8892 183.244C47.522 183.966 49.0785 184.521 50.9707 184.434C52.6848 184.353 54.1396 185.574 55.3654 186.759C57.6137 188.941 59.7653 191.225 61.9881 193.432C62.4306 193.87 62.6239 194.821 63.4581 194.567C64.0838 194.373 63.982 193.57 64.1601 193.02C65.8488 187.847 67.7715 182.781 71.0778 178.376C73.9466 174.556 77.324 171.428 82.3445 170.807C84.0179 170.599 83.3618 169.561 83.1125 168.757C81.5815 163.803 80.4879 158.778 80.1165 153.589C79.4044 143.533 81.2915 134.164 87.548 126.036C88.7738 124.438 88.4788 123.747 87.1105 122.612C82.9447 119.153 78.4075 116.071 74.9028 111.895C67.2781 102.81 65.0655 92.5204 68.9923 81.2486C71.5915 73.7917 72.0646 66.1924 71.5915 58.4405C71.5406 57.6165 71.6169 56.528 70.7929 56.1719C69.8977 55.7854 69.3331 56.823 68.6922 57.3113C54.8873 67.8455 40.3958 77.2048 23.8899 83.0035C16.9214 85.4501 9.82056 87.4491 2.30774 87.1541C1.57019 87.1236 0.629177 87.444 0.166302 86.7421C-0.342352 85.9689 0.440972 85.328 0.842809 84.7227C19.2408 57.2605 42.349 34.9661 72.0696 19.9558C73.6566 19.1521 75.2385 18.267 76.9171 17.738C87.7565 14.325 97.1463 7.46831 108.225 4.62493C117.93 2.13762 127.752 -0.136069 137.762 0.00635415C157.203 0.286114 174.726 6.95967 190.825 17.5854C192.834 18.913 194.889 19.9253 197.219 20.556C220.073 26.7717 241.446 36.2123 260.699 50.124C270.979 57.5504 280.313 66.0246 287.953 76.2282C288.532 77.0064 289.611 77.8304 289.123 78.863C288.609 79.9464 287.302 79.448 286.335 79.4836C284.387 79.5497 282.439 79.5039 280.486 79.5039L280.506 79.5293Z" fill="black"/>
</svg>
