<svg width="30" height="30" viewBox="0 0 30 30" fill="none" xmlns="http://www.w3.org/2000/svg">
<circle cx="15" cy="15" r="15" fill="url(#paint0_linear_98_211)"/>
<g clip-path="url(#clip0_98_211)">
<path fill-rule="evenodd" clip-rule="evenodd" d="M20.8655 19.958C20.8655 19.958 18.9741 21.475 15.2102 20.8472C12.3547 20.371 10.8317 17.2231 10.8317 15.5311C10.8317 11.5195 13.8008 10.6066 15.8081 10.6066C17.8154 10.6066 19.1249 12.5636 19.1249 14.0788C19.1249 15.5941 18.0532 16.9194 16.3854 16.9194C14.7177 16.9194 14.2237 15.7486 14.2237 14.6721C14.2237 13.5957 15.0946 13.2164 15.8889 13.2164C16.6832 13.2164 16.9551 13.8945 16.9551 14.4773C16.9551 15.0602 16.5029 15.2689 16.1258 15.2689C15.7486 15.2689 15.7113 15.0786 15.567 14.8786C15.4226 14.6787 15.7511 13.9218 15.2102 13.9218C14.6694 13.9218 14.5686 14.7919 14.5686 14.7919C14.5686 14.7919 14.7658 16.4716 16.3854 16.4426C18.0051 16.4136 18.7735 15.1615 18.5502 13.9218C18.3269 12.682 17.1237 11.3647 15.0122 11.6309C12.9007 11.8971 12.0385 14.0306 12.4185 16.3106C12.7986 18.5906 15.53 19.9117 17.6776 19.4364C19.8252 18.9611 21.9642 17.4063 21.9642 13.4643C21.9642 9.52233 18.5502 7.15283 14.4792 7.54333C10.4083 7.93384 7.88122 11.4929 8.04297 15.7692C8.20473 20.0456 12.2625 22.3746 15.6937 22.4946C19.1249 22.6147 21.2284 20.6284 21.2284 20.6284C21.2284 20.6284 21.7014 20.2066 21.516 19.8772C21.3305 19.5478 20.8655 19.958 20.8655 19.958Z" fill="white"/>
</g>
<defs>
<linearGradient id="paint0_linear_98_211" x1="0" y1="0" x2="0" y2="30" gradientUnits="userSpaceOnUse">
<stop stop-color="#FE9F92"/>
<stop offset="1" stop-color="#F66F71"/>
</linearGradient>
<clipPath id="clip0_98_211">
<rect width="15" height="15" fill="white" transform="translate(7.5 7.5)"/>
</clipPath>
</defs>
</svg>
