<svg width="30" height="30" viewBox="0 0 30 30" fill="none" xmlns="http://www.w3.org/2000/svg">
<circle cx="15" cy="15" r="15" fill="url(#paint0_linear_98_229)"/>
<g clip-path="url(#clip0_98_229)">
<path fill-rule="evenodd" clip-rule="evenodd" d="M12.7357 21.5C14.9331 21.5 16.8143 20.2787 17.5909 18.5475C17.6004 18.5264 14.4729 19.3603 14.5726 19.0655C14.6171 18.9339 16.5343 18.2335 17.9311 17.4166C18.7339 16.9471 19.1036 15.9531 19.1036 15.9531C19.1036 15.9531 17.7511 16.6098 17.0673 16.7764C15.6894 17.1121 14.4765 17.076 14.4765 17.041C14.4765 16.9654 16.4905 16.5827 19.2898 14.8769C20.6065 14.0745 20.9641 12.6925 20.9641 12.6925C20.9641 12.6925 19.5165 13.5547 18.6414 13.8394C16.5661 14.5145 14.6723 14.7179 14.6723 14.6266C14.6723 14.431 16.3389 13.9727 18.1059 13.1165C19.0247 12.6713 19.8204 12.0897 20.7424 11.443C22.2512 10.3847 22.5 8.5 22.5 8.5C22.5 8.5 21.0119 9.45977 20.2857 9.7785C17.2893 11.0937 14.6434 11.7836 12.7357 11.9329C9.85594 12.1584 7.5 14.1677 7.5 16.7764C7.5 19.3852 9.8441 21.5 12.7357 21.5Z" fill="white"/>
</g>
<defs>
<linearGradient id="paint0_linear_98_229" x1="0" y1="0" x2="0" y2="30" gradientUnits="userSpaceOnUse">
<stop stop-color="#A6C2F2"/>
<stop offset="1" stop-color="#90A7DA"/>
</linearGradient>
<clipPath id="clip0_98_229">
<rect width="15" height="15" fill="white" transform="translate(7.5 7.5)"/>
</clipPath>
</defs>
</svg>
