<svg width="30" height="30" viewBox="0 0 30 30" fill="none" xmlns="http://www.w3.org/2000/svg">
<circle cx="15" cy="15" r="15" fill="url(#paint0_linear_98_214)"/>
<g clip-path="url(#clip0_98_214)">
<path fill-rule="evenodd" clip-rule="evenodd" d="M10.0869 8.74704C10.2685 8.03031 10.9178 7.5 11.6909 7.5C12.2708 7.5 12.7811 7.79838 13.0765 8.25H13.5603C13.8609 7.94155 14.2808 7.75 14.7455 7.75C15.4267 7.75 16.0118 8.16176 16.2655 8.75H16.6705C16.9243 8.59156 17.2242 8.5 17.5454 8.5C18.2267 8.5 18.8118 8.91176 19.0655 9.5H20.1669C20.1763 9.5 20.1851 9.50254 20.1927 9.50696C20.243 9.50235 20.294 9.5 20.3454 9.5C21.2592 9.5 22 10.2408 22 11.1546V16.1158L22 16.125L22 16.1342V16.2057C22 16.2359 21.9992 16.2661 21.9975 16.2961C21.898 19.7378 18.8032 22.5 15 22.5C11.134 22.5 8 19.6458 8 16.125C8 14.4255 8.73022 12.8813 9.92051 11.7385C9.91754 13.3954 9.94553 15.1082 10.0745 15.0788C10.42 15.0001 10.1501 9.86834 10.0869 8.74704Z" fill="white"/>
</g>
<defs>
<linearGradient id="paint0_linear_98_214" x1="0.193393" y1="0" x2="0.193393" y2="29.6132" gradientUnits="userSpaceOnUse">
<stop stop-color="#E74347"/>
<stop offset="1" stop-color="#CE4265"/>
</linearGradient>
<clipPath id="clip0_98_214">
<rect width="15" height="15" fill="white" transform="translate(7.5 7.5)"/>
</clipPath>
</defs>
</svg>
