<svg width="30" height="30" viewBox="0 0 30 30" fill="none" xmlns="http://www.w3.org/2000/svg">
<circle cx="15" cy="15" r="15" fill="url(#paint0_linear_98_208)"/>
<g clip-path="url(#clip0_98_208)">
<path fill-rule="evenodd" clip-rule="evenodd" d="M10.5096 19.3939L12.9155 18.6963L14.9935 22.4958C14.9962 22.5007 15.0033 22.5007 15.006 22.4958L17.084 18.6963L19.49 19.3939C19.4953 19.3954 19.5004 19.3904 19.4987 19.385L18.801 17.0267L22.4958 15.006C22.5007 15.0033 22.5007 14.9962 22.4958 14.9935L18.7706 12.9561L19.4987 10.4949C19.5004 10.4895 19.4953 10.4845 19.49 10.486L17.0276 11.2L15.006 7.5037C15.0033 7.49877 14.9962 7.49877 14.9935 7.5037L12.9719 11.2L10.5096 10.486C10.5042 10.4845 10.4992 10.4895 10.5008 10.4949L11.2289 12.9561L7.5037 14.9935C7.49877 14.9962 7.49877 15.0033 7.5037 15.006L11.1985 17.0267L10.5008 19.385C10.4992 19.3904 10.5042 19.3954 10.5096 19.3939ZM12.3765 15.0257L14.081 15.9579L15.0132 17.6623C15.0159 17.6672 15.023 17.6672 15.0257 17.6623L15.9579 15.9579L17.6623 15.0257C17.6672 15.023 17.6672 15.0159 17.6623 15.0132L15.9579 14.081L15.0257 12.3766C15.023 12.3716 15.0159 12.3716 15.0132 12.3766L14.081 14.081L12.3765 15.0132C12.3716 15.0159 12.3716 15.023 12.3765 15.0257Z" fill="white"/>
</g>
<defs>
<linearGradient id="paint0_linear_98_208" x1="0.246216" y1="0" x2="0.246216" y2="29.5076" gradientUnits="userSpaceOnUse">
<stop stop-color="#F3A7E7"/>
<stop offset="1" stop-color="#EC8CE5"/>
</linearGradient>
<clipPath id="clip0_98_208">
<rect width="15" height="15" fill="white" transform="translate(7.5 7.5)"/>
</clipPath>
</defs>
</svg>
