<svg width="30" height="30" viewBox="0 0 30 30" fill="none" xmlns="http://www.w3.org/2000/svg">
<circle cx="15" cy="15" r="15" fill="white"/>
<path fill-rule="evenodd" clip-rule="evenodd" d="M22.9433 14.0424C24.1899 13.1331 25 11.6611 25 10C25 7.23858 22.7614 5 20 5C18.3389 5 16.8669 5.81007 15.9576 7.05673C15.6437 7.01927 15.3241 7 15 7C10.5817 7 7 10.5817 7 15C7 19.4183 10.5817 23 15 23C19.4183 23 23 19.4183 23 15C23 14.6759 22.9807 14.3563 22.9433 14.0424ZM20 15C21.1003 15 22.1175 14.6446 22.9433 14.0424C22.5075 10.3896 19.6104 7.49248 15.9576 7.05673C15.3554 7.88246 15 8.89973 15 10C15 12.7614 17.2386 15 20 15Z" fill="#111111"/>
</svg>
