<svg width="30" height="30" viewBox="0 0 30 30" fill="none" xmlns="http://www.w3.org/2000/svg">
<circle cx="15" cy="15" r="15" fill="url(#paint0_linear_98_217)"/>
<g clip-path="url(#clip0_98_217)">
<path fill-rule="evenodd" clip-rule="evenodd" d="M19.1056 15.0886C19.1048 15.0874 19.1044 15.0859 19.1046 15.0845L20.0616 9.50445C20.062 9.50188 20.0643 9.5 20.0669 9.5H20.3697C20.3721 9.5 20.3741 9.50151 20.3748 9.50374L22.5308 16.33C22.5315 16.3321 22.5307 16.3345 22.529 16.3358L20.9394 17.5769C20.937 17.5788 20.9336 17.5783 20.9318 17.5759L19.1056 15.0886ZM7.5 18.7878C7.5 18.7901 7.50149 18.7921 7.50369 18.7929L10.7805 19.8643C10.7821 19.8648 10.7839 19.8645 10.7852 19.8636L18.1097 14.807C18.1109 14.8061 18.1118 14.8048 18.112 14.8033L18.8974 9.53306C18.8979 9.52982 18.8954 9.52692 18.8921 9.52692H12.4045C12.4029 9.52692 12.4014 9.52763 12.4003 9.52885L7.50123 15.4389C7.50044 15.4399 7.5 15.4411 7.5 15.4423V18.7878ZM12.146 20.1373L15.7259 21.3099C15.7275 21.3104 15.7293 21.3102 15.7306 21.3092L19.9927 18.252C19.9951 18.2503 19.9957 18.2471 19.9941 18.2446L18.3963 15.8671C18.3947 15.8646 18.3913 15.8639 18.3889 15.8656L12.146 20.1373Z" fill="white"/>
</g>
<defs>
<linearGradient id="paint0_linear_98_217" x1="0" y1="0" x2="0" y2="30" gradientUnits="userSpaceOnUse">
<stop stop-color="#D7CD90"/>
<stop offset="1" stop-color="#C5B489"/>
</linearGradient>
<clipPath id="clip0_98_217">
<rect width="15" height="15" fill="white" transform="translate(7.5 7.5)"/>
</clipPath>
</defs>
</svg>
