<svg width="30" height="30" viewBox="0 0 30 30" fill="none" xmlns="http://www.w3.org/2000/svg">
<circle cx="15" cy="15" r="15" fill="url(#paint0_linear_98_184)"/>
<g clip-path="url(#clip0_98_184)">
<path fill-rule="evenodd" clip-rule="evenodd" d="M17.5224 7.51469C17.5333 7.49911 17.5548 7.49532 17.5704 7.50623L18.6354 8.252C18.651 8.26291 18.6548 8.28437 18.6439 8.29995L17.1615 10.417C17.8822 10.6472 18.3732 10.8956 18.3732 10.8956C18.3732 10.8956 17.173 12.9599 15.1375 12.9599C13.102 12.9599 11.6556 11.0359 11.6556 11.0359C11.6556 11.0359 12.1685 10.7086 12.9287 10.4279L11.3027 8.49016C11.2905 8.47559 11.2924 8.45388 11.307 8.44165L12.303 7.6059C12.3176 7.59367 12.3393 7.59557 12.3515 7.61014L14.4103 10.0637C14.5865 10.0437 14.7661 10.0326 14.9474 10.0326C15.2078 10.0326 15.468 10.0524 15.722 10.086L17.5224 7.51469ZM17.9251 13.0577C18.4683 12.6697 19.2903 11.6572 19.2903 11.6572C19.2903 11.6572 21.3898 13.3209 21.3898 16.8488C21.3898 20.3765 17.76 22.4998 17.76 22.4998C17.76 22.4998 16.0258 20.7484 15.6001 18.5282C15.1743 16.3081 16.2298 13.8429 16.2298 13.8429C16.2298 13.8429 17.3819 13.4456 17.9251 13.0577ZM12.075 13.0577C11.5318 12.6697 10.7099 11.6572 10.7099 11.6572C10.7099 11.6572 8.61035 13.3209 8.61035 16.8488C8.61035 20.3765 12.2401 22.4998 12.2401 22.4998C12.2401 22.4998 13.9743 20.7484 14.4001 18.5282C14.8258 16.3081 13.7703 13.8429 13.7703 13.8429C13.7703 13.8429 12.6183 13.4456 12.075 13.0577Z" fill="white"/>
</g>
<defs>
<linearGradient id="paint0_linear_98_184" x1="15" y1="0" x2="15" y2="30" gradientUnits="userSpaceOnUse">
<stop stop-color="#AFC836"/>
<stop offset="1" stop-color="#92BC2C"/>
</linearGradient>
<clipPath id="clip0_98_184">
<rect width="15" height="15" fill="white" transform="translate(7.5 7.5)"/>
</clipPath>
</defs>
</svg>
