<svg width="30" height="30" viewBox="0 0 30 30" fill="none" xmlns="http://www.w3.org/2000/svg">
<circle cx="15" cy="15" r="15" fill="url(#paint0_linear_98_220)"/>
<g clip-path="url(#clip0_98_220)">
<path fill-rule="evenodd" clip-rule="evenodd" d="M17.8249 19.0838C18.0103 18.4061 17.6505 17.013 17.6505 17.013C17.6505 17.013 17.3896 18.1479 16.9819 18.5674C16.6341 18.9252 16.208 19.1734 15.5969 19.2386C16.0965 18.9959 16.4401 18.4898 16.4401 17.9049C16.4401 17.0839 15.763 16.4182 14.9278 16.4182C14.0925 16.4182 13.4154 17.0839 13.4154 17.9049C13.4154 18.1292 13.4659 18.3418 13.5564 18.5325C13.0339 18.1163 12.9518 17.449 12.9518 17.449C12.9518 17.449 12.3684 19.871 13.9758 21.0103C15.5832 22.1496 18.732 21.1703 18.732 21.1703C18.732 21.1703 14.2259 24.3409 10.8868 20.8901C8.01046 17.9175 10.1361 14.004 10.1361 14.004C10.1361 14.004 10.0443 14.367 10.0443 14.7885C10.0443 15.2099 10.2728 15.5306 10.2728 15.5306C10.2728 15.5306 10.9544 14.0939 11.4848 13.5096C11.9868 12.9567 12.6162 12.5082 13.1597 12.1208C13.5782 11.8226 13.9458 11.5607 14.1653 11.3151C15.3746 9.96295 14.6331 7.5 14.6331 7.5C14.6331 7.5 15.9963 8.70176 16.3769 10.2538C16.522 10.8455 16.4286 11.5186 16.3452 12.1206C16.2097 13.0978 16.1002 13.8875 17.0789 13.8362C18.6604 13.7534 17.2861 11.3151 17.2861 11.3151C17.2861 11.3151 20.8736 13.2007 20.6056 16.4984C20.3375 19.7961 16.6843 20.5458 16.6843 20.5458C16.6843 20.5458 17.6396 19.7615 17.8249 19.0838Z" fill="white"/>
</g>
<defs>
<linearGradient id="paint0_linear_98_220" x1="0" y1="0" x2="0" y2="30" gradientUnits="userSpaceOnUse">
<stop stop-color="#FBAE46"/>
<stop offset="1" stop-color="#FB9B51"/>
</linearGradient>
<clipPath id="clip0_98_220">
<rect width="15" height="15" fill="white" transform="translate(7.5 7.5)"/>
</clipPath>
</defs>
</svg>
