<svg width="30" height="30" viewBox="0 0 30 30" fill="none" xmlns="http://www.w3.org/2000/svg">
<circle cx="15" cy="15" r="15" fill="white"/>
<path d="M18.1023 6H18.1561C18.1815 6.03491 18.1987 6.07399 18.2137 6.11433C18.3309 6.42911 18.3617 6.7598 18.3726 7.09086C18.3819 7.3747 18.3825 7.65926 18.3653 7.944C18.3495 8.2027 18.3366 8.46175 18.3053 8.719C18.241 9.24742 18.1484 9.77114 18.0171 10.2869C17.8818 10.8177 17.7109 11.3349 17.4039 11.7949C17.3821 11.8275 17.383 11.8608 17.3864 11.898C17.4014 12.0601 17.4125 12.2246 17.3844 12.3841C17.3396 12.6392 17.2777 12.8912 17.2221 13.1443C17.1483 13.4813 17.0794 13.8189 17.072 14.1659C17.0697 14.274 17.0695 14.2748 17.1662 14.2223C17.7056 13.9296 18.2917 13.8542 18.8915 13.846C18.9839 13.8448 19.0198 13.9012 18.9933 13.9897C18.959 14.1042 18.961 14.1018 19.0538 14.1791C19.136 14.2475 19.2302 14.3034 19.2886 14.3987C19.3255 14.4589 19.3151 14.5036 19.2464 14.5107C19.1636 14.5192 19.1808 14.5525 19.2039 14.6051C19.2399 14.6872 19.2216 14.7428 19.146 14.7692C19.0954 14.7869 19.0914 14.813 19.1066 14.8549C19.1258 14.9078 19.1102 14.9599 19.0631 14.9756C18.9916 14.9993 19.0011 15.038 19.0142 15.0928C19.0364 15.186 18.9934 15.2242 18.8998 15.2001C18.85 15.1873 18.8009 15.171 18.7507 15.1603C18.7022 15.15 18.6857 15.1892 18.6809 15.2242C18.6753 15.2634 18.7124 15.2517 18.7344 15.2544C18.7765 15.2594 18.8188 15.264 18.8611 15.2674C19.2016 15.2947 19.5417 15.3275 19.8828 15.3472C20.1557 15.3629 20.4251 15.4014 20.6933 15.4499C21.4314 15.5833 22.156 15.7701 22.866 16.0142C23.2156 16.1345 23.559 16.27 23.8857 16.4451C23.9284 16.4679 23.9774 16.4842 24 16.5341V16.5477C23.9891 16.5761 23.9672 16.5958 23.9466 16.6164C23.6993 16.8619 23.4557 17.1112 23.2047 17.353C22.7772 17.765 22.3761 18.2031 21.9729 18.6389C21.9258 18.6898 21.8821 18.7031 21.8196 18.6845C20.9256 18.4182 20.0314 18.1528 19.1375 17.8869C19.0429 17.8589 19.0432 17.8576 18.9945 17.9419C18.7171 18.4213 18.4389 18.9001 18.1634 19.3806C18.1267 19.4445 18.0871 19.4553 18.0205 19.4331C17.8612 19.3801 17.7 19.3334 17.5395 19.2847C17.4697 19.2636 17.4657 19.2676 17.4618 19.3426C17.4577 19.4192 17.4516 19.4957 17.4458 19.572C17.4247 19.8506 17.4021 20.129 17.3823 20.4076C17.3758 20.4995 17.3572 20.5165 17.2703 20.491C17.0364 20.4226 16.8025 20.3537 16.5687 20.2842C16.5248 20.2712 16.5051 20.2745 16.5218 20.3288C16.5802 20.5187 16.6255 20.7117 16.647 20.9096C16.6855 21.2666 16.6255 21.5942 16.3593 21.8567C16.3262 21.8894 16.3224 21.9071 16.3708 21.9261C16.6219 22.0244 16.8573 22.1544 17.0844 22.2993C17.2356 22.3958 17.3846 22.4949 17.515 22.6212C17.5911 22.6948 17.5721 22.7849 17.5791 22.8716C17.5809 22.8936 17.5621 22.9182 17.5426 22.9253C17.4595 22.9557 17.378 23.0058 17.2886 22.9995C17.196 22.9928 17.1034 22.971 17.0131 22.9437C16.63 22.8283 16.2497 22.7022 15.8549 22.6299C15.6462 22.5917 15.4392 22.5441 15.2309 22.503C15.1203 22.4813 15.0107 22.4111 15.0208 22.2813C15.0234 22.2471 15.0018 22.2357 14.9706 22.2315C14.8334 22.2134 14.6955 22.1984 14.5593 22.1734C13.9967 22.0701 13.435 21.9625 12.8726 21.8592C12.7545 21.8375 12.6379 21.8004 12.5149 21.8143C12.3863 21.8288 12.2573 21.8409 12.1283 21.8522C11.9014 21.8717 11.6745 21.8896 11.4475 21.9079C11.4178 21.9102 11.3952 21.9205 11.3907 21.9538C11.3696 22.1092 11.2594 22.176 11.1263 22.2037C10.899 22.251 10.6685 22.2834 10.4405 22.3279C10.1792 22.3791 9.9146 22.4041 9.65058 22.4316C9.49833 22.4475 9.34698 22.4837 9.19132 22.4649C9.14815 22.4596 9.11233 22.433 9.06862 22.4343C9.02098 22.4356 8.97495 22.4278 8.93339 22.4019C8.88198 22.3697 8.90724 22.3151 8.89398 22.2742C8.86371 22.1807 8.91637 22.136 8.97083 22.0915C9.09281 21.9916 9.22643 21.9091 9.3708 21.8455C9.55852 21.7626 9.73853 21.6615 9.93771 21.6056C9.92947 21.575 9.90869 21.5636 9.89204 21.5502C9.73155 21.4212 9.62318 21.2552 9.55601 21.0618C9.44872 20.7528 9.46914 20.4451 9.57338 20.1399C9.71238 19.7325 9.85209 19.3251 9.99127 18.9177C10.1815 18.3609 10.371 17.804 10.5627 17.2476C10.5813 17.1933 10.5759 17.1705 10.5152 17.1528C10.2128 17.0645 9.96583 16.8908 9.78259 16.6332C9.57302 16.3389 9.46394 16.0153 9.56299 15.6516C9.68157 15.2162 9.98607 14.9611 10.3961 14.8244C10.6841 14.7283 10.9827 14.7129 11.284 14.7404C11.3065 14.7424 11.3356 14.7663 11.3519 14.7393C11.366 14.7162 11.3411 14.6934 11.3304 14.672C11.153 14.3195 10.9977 13.9582 10.9146 13.5696C10.8645 13.3348 10.841 13.0991 10.8817 12.8585C10.9155 12.6578 11.0298 12.5023 11.1443 12.3467C11.2852 12.1551 11.4045 11.9521 11.4844 11.7271C11.6519 11.256 11.8656 10.8086 12.1511 10.398C12.1762 10.362 12.1783 10.3495 12.1289 10.339C11.8428 10.2791 11.5715 10.1766 11.309 10.0474C10.9503 9.87082 10.6114 9.66097 10.2825 9.43394C9.77704 9.08497 9.30811 8.69277 8.88162 8.2481C8.55061 7.9033 8.2556 7.53046 8 7.12523V7.07096C8.01684 7.05811 8.03582 7.0516 8.0566 7.05431C8.21584 7.0753 8.3783 7.08326 8.5336 7.12107C8.89398 7.20881 9.2533 7.30215 9.60222 7.4315C9.98464 7.57315 10.3597 7.73144 10.7196 7.92429C10.9209 8.03229 11.1174 8.14951 11.3178 8.25932C11.7223 8.48093 12.0954 8.74831 12.4513 9.04119C12.6632 9.21558 12.8595 9.40644 13.0359 9.61737C13.0694 9.65735 13.1035 9.67237 13.1581 9.65862C13.3188 9.6181 13.4836 9.59729 13.6482 9.59024C14.0152 9.57468 14.38 9.59331 14.7424 9.66712C15.3562 9.79213 15.9106 10.0447 16.4066 10.4291C16.4795 10.4855 16.5506 10.5443 16.6326 10.61C16.6326 10.5673 16.6332 10.5405 16.6326 10.5136C16.6283 10.3464 16.6326 10.1793 16.65 10.0132C16.6801 9.72845 16.724 9.4457 16.7815 9.16547C16.9597 8.29803 17.2155 7.45701 17.6305 6.67206C17.7593 6.42856 17.9112 6.19954 18.1023 6ZM17.9918 16.1565C17.7975 16.3546 17.6097 16.55 17.4102 16.7351C17.0584 17.0614 16.6873 17.3608 16.28 17.6136C16.2468 17.6342 16.2287 17.6579 16.221 17.6973C16.2099 17.7536 16.214 17.8098 16.2101 17.8659C16.1924 18.1221 16.1748 18.3782 16.1601 18.6346C16.1523 18.7721 16.1605 18.9099 16.1741 19.0469C16.1892 19.197 16.2087 19.3468 16.2466 19.4933C16.2542 19.5226 16.2619 19.5503 16.2947 19.561C16.4224 19.6024 16.5497 19.6446 16.6778 19.6849C16.7168 19.6972 16.7299 19.6817 16.7227 19.6395C16.712 19.5753 16.7073 19.51 16.7002 19.445C16.6753 19.2213 16.6497 18.9975 16.6255 18.7735C16.6049 18.5832 16.5863 18.3927 16.5653 18.2024C16.5589 18.1436 16.5769 18.1273 16.6369 18.1389C16.9133 18.1924 17.1904 18.2418 17.4672 18.2925C17.554 18.3084 17.5551 18.307 17.5725 18.2212C17.6832 17.6758 17.7942 17.1305 17.9051 16.5851C17.9341 16.4422 17.9628 16.2993 17.9918 16.1565Z" fill="#111111"/>
</svg>
