<svg width="30" height="30" viewBox="0 0 30 30" fill="none" xmlns="http://www.w3.org/2000/svg">
<circle cx="15" cy="15" r="15" fill="url(#paint0_linear_98_232)"/>
<g clip-path="url(#clip0_98_232)">
<path fill-rule="evenodd" clip-rule="evenodd" d="M18.3091 22.4481C16.9561 22.5173 15.4071 22.5173 14.8807 22.4481C10.7745 21.9079 7.5 18.9057 7.5 14.8477C7.5 10.7897 10.8579 7.5 15 7.5C19.1421 7.5 22.5 10.7897 22.5 14.8477C22.5 16.735 21.7736 18.4561 20.5799 19.7574C20.2557 20.1108 20.7005 20.3586 21.1524 20.6105C21.5956 20.8575 22.0457 21.1083 21.7841 21.4662C21.4959 21.8605 19.9334 22.3649 18.3091 22.4481ZM13.9453 13.9292C13.9453 14.5632 13.4206 15.0773 12.7734 15.0773C12.1262 15.0773 11.6016 14.5632 11.6016 13.9292C11.6016 13.504 11.8375 13.1327 12.1882 12.9343C12.2084 13.4872 13.3875 13.9292 13.9453 13.9292ZM17.5774 12.9343C17.5572 13.4872 16.3781 13.9292 15.8203 13.9292C15.8203 14.5632 16.345 15.0773 16.9922 15.0773C17.6394 15.0773 18.1641 14.5632 18.1641 13.9292C18.1641 13.504 17.9281 13.1327 17.5774 12.9343Z" fill="white"/>
</g>
<defs>
<linearGradient id="paint0_linear_98_232" x1="0.193393" y1="0" x2="0.193393" y2="29.6132" gradientUnits="userSpaceOnUse">
<stop stop-color="#7773D4"/>
<stop offset="1" stop-color="#516AAC"/>
</linearGradient>
<clipPath id="clip0_98_232">
<rect width="15" height="15" fill="white" transform="translate(7.5 7.5)"/>
</clipPath>
</defs>
</svg>
