<svg width="30" height="30" viewBox="0 0 30 30" fill="none" xmlns="http://www.w3.org/2000/svg">
<circle cx="15" cy="15" r="15" fill="url(#paint0_linear_98_205)"/>
<g clip-path="url(#clip0_98_205)">
<path fill-rule="evenodd" clip-rule="evenodd" d="M20.0338 19.0268C21.5486 17.8157 22.5 16.0657 22.5 14.1196C22.5 10.4637 19.1421 7.5 15 7.5C10.8579 7.5 7.5 10.4637 7.5 14.1196C7.5 15.9954 8.38399 17.689 9.80435 18.8936C9.71827 19.1908 9.67105 19.5141 9.67105 19.8521C9.67105 21.3145 10.5547 22.5 11.6447 22.5C12.353 22.5 12.9742 21.9995 13.3224 21.2477C13.6706 21.9995 14.2917 22.5 15 22.5C15.6456 22.5 16.2189 22.0841 16.579 21.4411C16.939 22.0841 17.5123 22.5 18.1579 22.5C19.2479 22.5 20.1316 21.3145 20.1316 19.8521C20.1316 19.564 20.0972 19.2865 20.0338 19.0268ZM19.3421 14.2509C19.3421 16.107 17.3539 17.6116 14.9013 17.6116C12.4487 17.6116 10.4605 16.107 10.4605 14.2509C10.4605 12.3948 12.4487 10.8902 14.9013 10.8902C17.3539 10.8902 19.3421 12.3948 19.3421 14.2509Z" fill="white"/>
</g>
<defs>
<linearGradient id="paint0_linear_98_205" x1="0" y1="0" x2="0" y2="30" gradientUnits="userSpaceOnUse">
<stop stop-color="#C261D4"/>
<stop offset="1" stop-color="#A864C7"/>
</linearGradient>
<clipPath id="clip0_98_205">
<rect width="15" height="15" fill="white" transform="translate(7.5 7.5)"/>
</clipPath>
</defs>
</svg>
